ISO-10303-21;
HEADER;
/* Generated by software containing ST-Developer
 * from STEP Tools, Inc. (www.steptools.com) 
 */

FILE_DESCRIPTION(
/* description */ (''),
/* implementation_level */ '2;1');

FILE_NAME(
/* name */ 'flysky2espnow_case.step',
/* time_stamp */ '2026-09-26T19:15:45+05:30',
/* author */ (''),
/* organization */ (''),
/* preprocessor_version */ 'ST-DEVELOPER v20.2',
/* originating_system */ 'Autodesk Translation Framework v15.15.0.0',
/* authorisation */ '');

FILE_SCHEMA (('AUTOMOTIVE_DESIGN { 1 0 10303 214 3 1 1 }'));
ENDSEC;

DATA;
#10=MECHANICAL_DESIGN_GEOMETRIC_PRESENTATION_REPRESENTATION('',(#13),#1759);
#11=SHAPE_REPRESENTATION_RELATIONSHIP('SRR','None',#1766,#12);
#12=ADVANCED_BREP_SHAPE_REPRESENTATION('',(#14),#1758);
#13=STYLED_ITEM('',(#1775),#14);
#14=MANIFOLD_SOLID_BREP('Body1',#1073);
#15=FACE_BOUND('',#117,.T.);
#16=FACE_BOUND('',#130,.T.);
#17=FACE_BOUND('',#131,.T.);
#18=FACE_BOUND('',#136,.T.);
#19=FACE_BOUND('',#137,.T.);
#20=FACE_BOUND('',#138,.T.);
#21=FACE_BOUND('',#139,.T.);
#22=FACE_BOUND('',#140,.T.);
#23=FACE_BOUND('',#146,.T.);
#24=FACE_BOUND('',#147,.T.);
#25=FACE_BOUND('',#148,.T.);
#26=FACE_BOUND('',#150,.T.);
#27=FACE_BOUND('',#151,.T.);
#28=CYLINDRICAL_SURFACE('',#1090,2.1);
#29=CYLINDRICAL_SURFACE('',#1095,2.1);
#30=CYLINDRICAL_SURFACE('',#1102,2.1);
#31=CYLINDRICAL_SURFACE('',#1107,2.1);
#32=CYLINDRICAL_SURFACE('',#1135,0.875);
#33=CYLINDRICAL_SURFACE('',#1138,0.874999999999999);
#34=CYLINDRICAL_SURFACE('',#1145,1.23669433386477);
#35=CYLINDRICAL_SURFACE('',#1148,1.40028897241607);
#36=CYLINDRICAL_SURFACE('',#1151,1.41999997273087);
#37=CYLINDRICAL_SURFACE('',#1154,1.30499997530132);
#38=FACE_OUTER_BOUND('',#89,.T.);
#39=FACE_OUTER_BOUND('',#90,.T.);
#40=FACE_OUTER_BOUND('',#91,.T.);
#41=FACE_OUTER_BOUND('',#92,.T.);
#42=FACE_OUTER_BOUND('',#93,.T.);
#43=FACE_OUTER_BOUND('',#94,.T.);
#44=FACE_OUTER_BOUND('',#95,.T.);
#45=FACE_OUTER_BOUND('',#96,.T.);
#46=FACE_OUTER_BOUND('',#97,.T.);
#47=FACE_OUTER_BOUND('',#98,.T.);
#48=FACE_OUTER_BOUND('',#99,.T.);
#49=FACE_OUTER_BOUND('',#100,.T.);
#50=FACE_OUTER_BOUND('',#101,.T.);
#51=FACE_OUTER_BOUND('',#102,.T.);
#52=FACE_OUTER_BOUND('',#103,.T.);
#53=FACE_OUTER_BOUND('',#104,.T.);
#54=FACE_OUTER_BOUND('',#105,.T.);
#55=FACE_OUTER_BOUND('',#106,.T.);
#56=FACE_OUTER_BOUND('',#107,.T.);
#57=FACE_OUTER_BOUND('',#108,.T.);
#58=FACE_OUTER_BOUND('',#109,.T.);
#59=FACE_OUTER_BOUND('',#110,.T.);
#60=FACE_OUTER_BOUND('',#111,.T.);
#61=FACE_OUTER_BOUND('',#112,.T.);
#62=FACE_OUTER_BOUND('',#113,.T.);
#63=FACE_OUTER_BOUND('',#114,.T.);
#64=FACE_OUTER_BOUND('',#115,.T.);
#65=FACE_OUTER_BOUND('',#116,.T.);
#66=FACE_OUTER_BOUND('',#118,.T.);
#67=FACE_OUTER_BOUND('',#119,.T.);
#68=FACE_OUTER_BOUND('',#120,.T.);
#69=FACE_OUTER_BOUND('',#121,.T.);
#70=FACE_OUTER_BOUND('',#122,.T.);
#71=FACE_OUTER_BOUND('',#123,.T.);
#72=FACE_OUTER_BOUND('',#124,.T.);
#73=FACE_OUTER_BOUND('',#125,.T.);
#74=FACE_OUTER_BOUND('',#126,.T.);
#75=FACE_OUTER_BOUND('',#127,.T.);
#76=FACE_OUTER_BOUND('',#128,.T.);
#77=FACE_OUTER_BOUND('',#129,.T.);
#78=FACE_OUTER_BOUND('',#132,.T.);
#79=FACE_OUTER_BOUND('',#133,.T.);
#80=FACE_OUTER_BOUND('',#134,.T.);
#81=FACE_OUTER_BOUND('',#135,.T.);
#82=FACE_OUTER_BOUND('',#141,.T.);
#83=FACE_OUTER_BOUND('',#142,.T.);
#84=FACE_OUTER_BOUND('',#143,.T.);
#85=FACE_OUTER_BOUND('',#144,.T.);
#86=FACE_OUTER_BOUND('',#145,.T.);
#87=FACE_OUTER_BOUND('',#149,.T.);
#88=FACE_OUTER_BOUND('',#152,.T.);
#89=EDGE_LOOP('',(#677,#678,#679,#680));
#90=EDGE_LOOP('',(#681,#682,#683,#684,#685,#686));
#91=EDGE_LOOP('',(#687,#688,#689));
#92=EDGE_LOOP('',(#690,#691,#692,#693,#694,#695));
#93=EDGE_LOOP('',(#696,#697,#698,#699));
#94=EDGE_LOOP('',(#700,#701,#702,#703,#704,#705));
#95=EDGE_LOOP('',(#706,#707,#708));
#96=EDGE_LOOP('',(#709,#710,#711,#712,#713,#714));
#97=EDGE_LOOP('',(#715,#716,#717,#718));
#98=EDGE_LOOP('',(#719,#720,#721,#722));
#99=EDGE_LOOP('',(#723,#724,#725,#726,#727));
#100=EDGE_LOOP('',(#728,#729,#730,#731));
#101=EDGE_LOOP('',(#732,#733,#734,#735));
#102=EDGE_LOOP('',(#736,#737,#738,#739,#740,#741));
#103=EDGE_LOOP('',(#742,#743,#744,#745,#746,#747,#748,#749,#750,#751,#752,
#753,#754,#755,#756,#757));
#104=EDGE_LOOP('',(#758,#759,#760,#761));
#105=EDGE_LOOP('',(#762,#763,#764,#765));
#106=EDGE_LOOP('',(#766,#767,#768,#769,#770,#771));
#107=EDGE_LOOP('',(#772,#773,#774,#775,#776,#777,#778,#779,#780,#781,#782,
#783,#784,#785,#786,#787,#788,#789));
#108=EDGE_LOOP('',(#790,#791,#792,#793));
#109=EDGE_LOOP('',(#794,#795,#796,#797));
#110=EDGE_LOOP('',(#798,#799,#800,#801,#802));
#111=EDGE_LOOP('',(#803,#804,#805,#806));
#112=EDGE_LOOP('',(#807,#808,#809,#810));
#113=EDGE_LOOP('',(#811,#812,#813,#814));
#114=EDGE_LOOP('',(#815,#816,#817,#818));
#115=EDGE_LOOP('',(#819,#820,#821,#822));
#116=EDGE_LOOP('',(#823,#824,#825,#826,#827,#828,#829,#830,#831,#832));
#117=EDGE_LOOP('',(#833,#834,#835,#836));
#118=EDGE_LOOP('',(#837,#838,#839,#840));
#119=EDGE_LOOP('',(#841,#842,#843,#844));
#120=EDGE_LOOP('',(#845,#846,#847,#848));
#121=EDGE_LOOP('',(#849,#850,#851,#852));
#122=EDGE_LOOP('',(#853,#854,#855,#856,#857));
#123=EDGE_LOOP('',(#858,#859,#860,#861));
#124=EDGE_LOOP('',(#862,#863,#864,#865,#866));
#125=EDGE_LOOP('',(#867,#868,#869,#870));
#126=EDGE_LOOP('',(#871,#872,#873,#874));
#127=EDGE_LOOP('',(#875,#876,#877,#878));
#128=EDGE_LOOP('',(#879,#880,#881,#882));
#129=EDGE_LOOP('',(#883,#884,#885,#886));
#130=EDGE_LOOP('',(#887));
#131=EDGE_LOOP('',(#888));
#132=EDGE_LOOP('',(#889,#890,#891,#892));
#133=EDGE_LOOP('',(#893,#894,#895,#896));
#134=EDGE_LOOP('',(#897,#898,#899,#900,#901,#902));
#135=EDGE_LOOP('',(#903,#904,#905,#906));
#136=EDGE_LOOP('',(#907));
#137=EDGE_LOOP('',(#908));
#138=EDGE_LOOP('',(#909));
#139=EDGE_LOOP('',(#910));
#140=EDGE_LOOP('',(#911,#912,#913,#914,#915,#916,#917,#918,#919,#920,#921,
#922));
#141=EDGE_LOOP('',(#923,#924,#925,#926));
#142=EDGE_LOOP('',(#927,#928,#929,#930));
#143=EDGE_LOOP('',(#931,#932,#933,#934,#935,#936,#937,#938,#939,#940,#941,
#942,#943,#944,#945,#946));
#144=EDGE_LOOP('',(#947,#948,#949,#950));
#145=EDGE_LOOP('',(#951,#952,#953,#954));
#146=EDGE_LOOP('',(#955));
#147=EDGE_LOOP('',(#956));
#148=EDGE_LOOP('',(#957,#958,#959,#960,#961,#962,#963,#964));
#149=EDGE_LOOP('',(#965,#966,#967,#968));
#150=EDGE_LOOP('',(#969,#970,#971,#972));
#151=EDGE_LOOP('',(#973,#974,#975,#976));
#152=EDGE_LOOP('',(#977,#978,#979,#980));
#153=CIRCLE('',#1088,2.1);
#154=CIRCLE('',#1089,2.1);
#155=CIRCLE('',#1091,2.1);
#156=CIRCLE('',#1092,2.1);
#157=CIRCLE('',#1094,2.1);
#158=CIRCLE('',#1096,2.1);
#159=CIRCLE('',#1097,2.1);
#160=CIRCLE('',#1098,2.1);
#161=CIRCLE('',#1100,2.1);
#162=CIRCLE('',#1101,2.1);
#163=CIRCLE('',#1103,2.1);
#164=CIRCLE('',#1104,2.1);
#165=CIRCLE('',#1106,2.1);
#166=CIRCLE('',#1108,2.1);
#167=CIRCLE('',#1109,2.1);
#168=CIRCLE('',#1110,2.1);
#169=CIRCLE('',#1122,1.40028897241607);
#170=CIRCLE('',#1123,1.41999997273087);
#171=CIRCLE('',#1124,1.30499997530132);
#172=CIRCLE('',#1125,1.23669433386477);
#173=CIRCLE('',#1136,0.875);
#174=CIRCLE('',#1137,0.875);
#175=CIRCLE('',#1139,0.874999999999999);
#176=CIRCLE('',#1140,0.874999999999999);
#177=CIRCLE('',#1142,1.23669433386477);
#178=CIRCLE('',#1143,1.40028897241607);
#179=CIRCLE('',#1146,1.23669433386477);
#180=CIRCLE('',#1149,1.40028897241607);
#181=CIRCLE('',#1152,1.41999997273087);
#182=CIRCLE('',#1155,1.30499997530132);
#183=LINE('',#1458,#305);
#184=LINE('',#1463,#306);
#185=LINE('',#1467,#307);
#186=LINE('',#1472,#308);
#187=LINE('',#1475,#309);
#188=LINE('',#1480,#310);
#189=LINE('',#1486,#311);
#190=LINE('',#1491,#312);
#191=LINE('',#1495,#313);
#192=LINE('',#1500,#314);
#193=LINE('',#1503,#315);
#194=LINE('',#1508,#316);
#195=LINE('',#1514,#317);
#196=LINE('',#1516,#318);
#197=LINE('',#1518,#319);
#198=LINE('',#1519,#320);
#199=LINE('',#1522,#321);
#200=LINE('',#1524,#322);
#201=LINE('',#1525,#323);
#202=LINE('',#1527,#324);
#203=LINE('',#1528,#325);
#204=LINE('',#1532,#326);
#205=LINE('',#1534,#327);
#206=LINE('',#1536,#328);
#207=LINE('',#1537,#329);
#208=LINE('',#1540,#330);
#209=LINE('',#1542,#331);
#210=LINE('',#1543,#332);
#211=LINE('',#1545,#333);
#212=LINE('',#1546,#334);
#213=LINE('',#1549,#335);
#214=LINE('',#1551,#336);
#215=LINE('',#1553,#337);
#216=LINE('',#1555,#338);
#217=LINE('',#1557,#339);
#218=LINE('',#1559,#340);
#219=LINE('',#1561,#341);
#220=LINE('',#1563,#342);
#221=LINE('',#1564,#343);
#222=LINE('',#1566,#344);
#223=LINE('',#1568,#345);
#224=LINE('',#1569,#346);
#225=LINE('',#1573,#347);
#226=LINE('',#1575,#348);
#227=LINE('',#1577,#349);
#228=LINE('',#1578,#350);
#229=LINE('',#1580,#351);
#230=LINE('',#1581,#352);
#231=LINE('',#1583,#353);
#232=LINE('',#1585,#354);
#233=LINE('',#1587,#355);
#234=LINE('',#1591,#356);
#235=LINE('',#1595,#357);
#236=LINE('',#1599,#358);
#237=LINE('',#1603,#359);
#238=LINE('',#1604,#360);
#239=LINE('',#1608,#361);
#240=LINE('',#1610,#362);
#241=LINE('',#1612,#363);
#242=LINE('',#1613,#364);
#243=LINE('',#1616,#365);
#244=LINE('',#1618,#366);
#245=LINE('',#1619,#367);
#246=LINE('',#1621,#368);
#247=LINE('',#1622,#369);
#248=LINE('',#1626,#370);
#249=LINE('',#1628,#371);
#250=LINE('',#1630,#372);
#251=LINE('',#1631,#373);
#252=LINE('',#1634,#374);
#253=LINE('',#1636,#375);
#254=LINE('',#1637,#376);
#255=LINE('',#1640,#377);
#256=LINE('',#1642,#378);
#257=LINE('',#1643,#379);
#258=LINE('',#1645,#380);
#259=LINE('',#1646,#381);
#260=LINE('',#1650,#382);
#261=LINE('',#1651,#383);
#262=LINE('',#1652,#384);
#263=LINE('',#1654,#385);
#264=LINE('',#1655,#386);
#265=LINE('',#1660,#387);
#266=LINE('',#1666,#388);
#267=LINE('',#1669,#389);
#268=LINE('',#1673,#390);
#269=LINE('',#1678,#391);
#270=LINE('',#1679,#392);
#271=LINE('',#1680,#393);
#272=LINE('',#1684,#394);
#273=LINE('',#1687,#395);
#274=LINE('',#1688,#396);
#275=LINE('',#1692,#397);
#276=LINE('',#1695,#398);
#277=LINE('',#1696,#399);
#278=LINE('',#1700,#400);
#279=LINE('',#1703,#401);
#280=LINE('',#1704,#402);
#281=LINE('',#1709,#403);
#282=LINE('',#1711,#404);
#283=LINE('',#1712,#405);
#284=LINE('',#1715,#406);
#285=LINE('',#1716,#407);
#286=LINE('',#1720,#408);
#287=LINE('',#1722,#409);
#288=LINE('',#1724,#410);
#289=LINE('',#1725,#411);
#290=LINE('',#1728,#412);
#291=LINE('',#1729,#413);
#292=LINE('',#1732,#414);
#293=LINE('',#1734,#415);
#294=LINE('',#1735,#416);
#295=LINE('',#1736,#417);
#296=LINE('',#1739,#418);
#297=LINE('',#1740,#419);
#298=LINE('',#1742,#420);
#299=LINE('',#1744,#421);
#300=LINE('',#1748,#422);
#301=LINE('',#1749,#423);
#302=LINE('',#1750,#424);
#303=LINE('',#1752,#425);
#304=LINE('',#1754,#426);
#305=VECTOR('',#1172,10.);
#306=VECTOR('',#1177,10.);
#307=VECTOR('',#1182,2.1);
#308=VECTOR('',#1187,10.);
#309=VECTOR('',#1190,10.);
#310=VECTOR('',#1195,2.1);
#311=VECTOR('',#1202,10.);
#312=VECTOR('',#1207,10.);
#313=VECTOR('',#1212,2.1);
#314=VECTOR('',#1217,10.);
#315=VECTOR('',#1220,10.);
#316=VECTOR('',#1225,2.1);
#317=VECTOR('',#1232,10.);
#318=VECTOR('',#1233,10.);
#319=VECTOR('',#1234,10.);
#320=VECTOR('',#1235,10.);
#321=VECTOR('',#1238,10.);
#322=VECTOR('',#1239,10.);
#323=VECTOR('',#1240,10.);
#324=VECTOR('',#1243,10.);
#325=VECTOR('',#1244,10.);
#326=VECTOR('',#1247,10.);
#327=VECTOR('',#1248,10.);
#328=VECTOR('',#1249,10.);
#329=VECTOR('',#1250,10.);
#330=VECTOR('',#1253,10.);
#331=VECTOR('',#1254,10.);
#332=VECTOR('',#1255,10.);
#333=VECTOR('',#1258,10.);
#334=VECTOR('',#1259,10.);
#335=VECTOR('',#1262,10.);
#336=VECTOR('',#1263,10.);
#337=VECTOR('',#1264,10.);
#338=VECTOR('',#1265,10.);
#339=VECTOR('',#1266,10.);
#340=VECTOR('',#1267,10.);
#341=VECTOR('',#1268,10.);
#342=VECTOR('',#1269,10.);
#343=VECTOR('',#1270,10.);
#344=VECTOR('',#1271,10.);
#345=VECTOR('',#1272,10.);
#346=VECTOR('',#1273,10.);
#347=VECTOR('',#1276,10.);
#348=VECTOR('',#1277,10.);
#349=VECTOR('',#1278,10.);
#350=VECTOR('',#1279,10.);
#351=VECTOR('',#1282,10.);
#352=VECTOR('',#1283,10.);
#353=VECTOR('',#1286,10.);
#354=VECTOR('',#1289,10.);
#355=VECTOR('',#1290,10.);
#356=VECTOR('',#1293,10.);
#357=VECTOR('',#1296,10.);
#358=VECTOR('',#1299,10.);
#359=VECTOR('',#1302,10.);
#360=VECTOR('',#1303,10.);
#361=VECTOR('',#1306,10.);
#362=VECTOR('',#1307,10.);
#363=VECTOR('',#1308,10.);
#364=VECTOR('',#1309,10.);
#365=VECTOR('',#1312,10.);
#366=VECTOR('',#1313,10.);
#367=VECTOR('',#1314,10.);
#368=VECTOR('',#1317,10.);
#369=VECTOR('',#1318,10.);
#370=VECTOR('',#1321,10.);
#371=VECTOR('',#1322,10.);
#372=VECTOR('',#1323,10.);
#373=VECTOR('',#1324,10.);
#374=VECTOR('',#1327,10.);
#375=VECTOR('',#1328,10.);
#376=VECTOR('',#1329,10.);
#377=VECTOR('',#1332,10.);
#378=VECTOR('',#1333,10.);
#379=VECTOR('',#1334,10.);
#380=VECTOR('',#1337,10.);
#381=VECTOR('',#1338,10.);
#382=VECTOR('',#1341,10.);
#383=VECTOR('',#1342,10.);
#384=VECTOR('',#1343,10.);
#385=VECTOR('',#1346,10.);
#386=VECTOR('',#1347,10.);
#387=VECTOR('',#1352,0.875);
#388=VECTOR('',#1359,0.874999999999999);
#389=VECTOR('',#1364,10.);
#390=VECTOR('',#1367,10.);
#391=VECTOR('',#1372,10.);
#392=VECTOR('',#1373,10.);
#393=VECTOR('',#1374,10.);
#394=VECTOR('',#1379,10.);
#395=VECTOR('',#1382,10.);
#396=VECTOR('',#1383,10.);
#397=VECTOR('',#1388,10.);
#398=VECTOR('',#1391,10.);
#399=VECTOR('',#1392,10.);
#400=VECTOR('',#1397,10.);
#401=VECTOR('',#1400,10.);
#402=VECTOR('',#1401,10.);
#403=VECTOR('',#1408,10.);
#404=VECTOR('',#1409,10.);
#405=VECTOR('',#1410,10.);
#406=VECTOR('',#1413,10.);
#407=VECTOR('',#1414,10.);
#408=VECTOR('',#1417,10.);
#409=VECTOR('',#1418,10.);
#410=VECTOR('',#1419,10.);
#411=VECTOR('',#1420,10.);
#412=VECTOR('',#1423,10.);
#413=VECTOR('',#1424,10.);
#414=VECTOR('',#1427,10.);
#415=VECTOR('',#1428,10.);
#416=VECTOR('',#1429,10.);
#417=VECTOR('',#1430,10.);
#418=VECTOR('',#1433,10.);
#419=VECTOR('',#1434,10.);
#420=VECTOR('',#1437,10.);
#421=VECTOR('',#1440,10.);
#422=VECTOR('',#1443,10.);
#423=VECTOR('',#1444,10.);
#424=VECTOR('',#1445,10.);
#425=VECTOR('',#1448,10.);
#426=VECTOR('',#1451,10.);
#427=VERTEX_POINT('',#1456);
#428=VERTEX_POINT('',#1457);
#429=VERTEX_POINT('',#1459);
#430=VERTEX_POINT('',#1461);
#431=VERTEX_POINT('',#1465);
#432=VERTEX_POINT('',#1470);
#433=VERTEX_POINT('',#1471);
#434=VERTEX_POINT('',#1473);
#435=VERTEX_POINT('',#1477);
#436=VERTEX_POINT('',#1479);
#437=VERTEX_POINT('',#1484);
#438=VERTEX_POINT('',#1485);
#439=VERTEX_POINT('',#1487);
#440=VERTEX_POINT('',#1489);
#441=VERTEX_POINT('',#1493);
#442=VERTEX_POINT('',#1498);
#443=VERTEX_POINT('',#1499);
#444=VERTEX_POINT('',#1501);
#445=VERTEX_POINT('',#1505);
#446=VERTEX_POINT('',#1507);
#447=VERTEX_POINT('',#1512);
#448=VERTEX_POINT('',#1513);
#449=VERTEX_POINT('',#1515);
#450=VERTEX_POINT('',#1517);
#451=VERTEX_POINT('',#1521);
#452=VERTEX_POINT('',#1523);
#453=VERTEX_POINT('',#1530);
#454=VERTEX_POINT('',#1531);
#455=VERTEX_POINT('',#1533);
#456=VERTEX_POINT('',#1535);
#457=VERTEX_POINT('',#1539);
#458=VERTEX_POINT('',#1541);
#459=VERTEX_POINT('',#1548);
#460=VERTEX_POINT('',#1550);
#461=VERTEX_POINT('',#1552);
#462=VERTEX_POINT('',#1554);
#463=VERTEX_POINT('',#1556);
#464=VERTEX_POINT('',#1558);
#465=VERTEX_POINT('',#1560);
#466=VERTEX_POINT('',#1562);
#467=VERTEX_POINT('',#1565);
#468=VERTEX_POINT('',#1567);
#469=VERTEX_POINT('',#1571);
#470=VERTEX_POINT('',#1572);
#471=VERTEX_POINT('',#1574);
#472=VERTEX_POINT('',#1576);
#473=VERTEX_POINT('',#1586);
#474=VERTEX_POINT('',#1588);
#475=VERTEX_POINT('',#1590);
#476=VERTEX_POINT('',#1592);
#477=VERTEX_POINT('',#1594);
#478=VERTEX_POINT('',#1596);
#479=VERTEX_POINT('',#1598);
#480=VERTEX_POINT('',#1600);
#481=VERTEX_POINT('',#1602);
#482=VERTEX_POINT('',#1606);
#483=VERTEX_POINT('',#1607);
#484=VERTEX_POINT('',#1609);
#485=VERTEX_POINT('',#1611);
#486=VERTEX_POINT('',#1615);
#487=VERTEX_POINT('',#1617);
#488=VERTEX_POINT('',#1624);
#489=VERTEX_POINT('',#1625);
#490=VERTEX_POINT('',#1627);
#491=VERTEX_POINT('',#1629);
#492=VERTEX_POINT('',#1633);
#493=VERTEX_POINT('',#1635);
#494=VERTEX_POINT('',#1639);
#495=VERTEX_POINT('',#1641);
#496=VERTEX_POINT('',#1648);
#497=VERTEX_POINT('',#1649);
#498=VERTEX_POINT('',#1657);
#499=VERTEX_POINT('',#1659);
#500=VERTEX_POINT('',#1663);
#501=VERTEX_POINT('',#1665);
#502=VERTEX_POINT('',#1670);
#503=VERTEX_POINT('',#1672);
#504=VERTEX_POINT('',#1676);
#505=VERTEX_POINT('',#1677);
#506=VERTEX_POINT('',#1682);
#507=VERTEX_POINT('',#1686);
#508=VERTEX_POINT('',#1690);
#509=VERTEX_POINT('',#1694);
#510=VERTEX_POINT('',#1698);
#511=VERTEX_POINT('',#1702);
#512=VERTEX_POINT('',#1708);
#513=VERTEX_POINT('',#1710);
#514=VERTEX_POINT('',#1714);
#515=VERTEX_POINT('',#1718);
#516=VERTEX_POINT('',#1719);
#517=VERTEX_POINT('',#1721);
#518=VERTEX_POINT('',#1723);
#519=VERTEX_POINT('',#1727);
#520=VERTEX_POINT('',#1731);
#521=VERTEX_POINT('',#1733);
#522=VERTEX_POINT('',#1738);
#523=VERTEX_POINT('',#1746);
#524=VERTEX_POINT('',#1747);
#525=EDGE_CURVE('',#427,#428,#183,.T.);
#526=EDGE_CURVE('',#429,#427,#153,.T.);
#527=EDGE_CURVE('',#430,#429,#154,.T.);
#528=EDGE_CURVE('',#428,#430,#184,.T.);
#529=EDGE_CURVE('',#431,#431,#155,.T.);
#530=EDGE_CURVE('',#431,#429,#185,.T.);
#531=EDGE_CURVE('',#430,#427,#156,.T.);
#532=EDGE_CURVE('',#432,#433,#186,.T.);
#533=EDGE_CURVE('',#434,#432,#157,.T.);
#534=EDGE_CURVE('',#433,#434,#187,.T.);
#535=EDGE_CURVE('',#435,#435,#158,.T.);
#536=EDGE_CURVE('',#435,#436,#188,.T.);
#537=EDGE_CURVE('',#434,#436,#159,.T.);
#538=EDGE_CURVE('',#436,#432,#160,.T.);
#539=EDGE_CURVE('',#437,#438,#189,.T.);
#540=EDGE_CURVE('',#439,#437,#161,.T.);
#541=EDGE_CURVE('',#440,#439,#162,.T.);
#542=EDGE_CURVE('',#438,#440,#190,.T.);
#543=EDGE_CURVE('',#441,#441,#163,.T.);
#544=EDGE_CURVE('',#441,#439,#191,.T.);
#545=EDGE_CURVE('',#440,#437,#164,.T.);
#546=EDGE_CURVE('',#442,#443,#192,.T.);
#547=EDGE_CURVE('',#444,#442,#165,.T.);
#548=EDGE_CURVE('',#443,#444,#193,.T.);
#549=EDGE_CURVE('',#445,#445,#166,.T.);
#550=EDGE_CURVE('',#445,#446,#194,.T.);
#551=EDGE_CURVE('',#444,#446,#167,.T.);
#552=EDGE_CURVE('',#446,#442,#168,.T.);
#553=EDGE_CURVE('',#447,#448,#195,.T.);
#554=EDGE_CURVE('',#449,#448,#196,.T.);
#555=EDGE_CURVE('',#450,#449,#197,.T.);
#556=EDGE_CURVE('',#447,#450,#198,.T.);
#557=EDGE_CURVE('',#451,#447,#199,.T.);
#558=EDGE_CURVE('',#452,#450,#200,.T.);
#559=EDGE_CURVE('',#451,#452,#201,.T.);
#560=EDGE_CURVE('',#452,#427,#202,.T.);
#561=EDGE_CURVE('',#430,#449,#203,.T.);
#562=EDGE_CURVE('',#453,#454,#204,.T.);
#563=EDGE_CURVE('',#455,#454,#205,.T.);
#564=EDGE_CURVE('',#456,#455,#206,.T.);
#565=EDGE_CURVE('',#453,#456,#207,.T.);
#566=EDGE_CURVE('',#457,#453,#208,.T.);
#567=EDGE_CURVE('',#458,#456,#209,.T.);
#568=EDGE_CURVE('',#457,#458,#210,.T.);
#569=EDGE_CURVE('',#458,#442,#211,.T.);
#570=EDGE_CURVE('',#444,#455,#212,.T.);
#571=EDGE_CURVE('',#443,#459,#213,.T.);
#572=EDGE_CURVE('',#459,#460,#214,.T.);
#573=EDGE_CURVE('',#461,#460,#215,.T.);
#574=EDGE_CURVE('',#462,#461,#216,.T.);
#575=EDGE_CURVE('',#462,#463,#217,.T.);
#576=EDGE_CURVE('',#463,#464,#218,.T.);
#577=EDGE_CURVE('',#464,#465,#219,.T.);
#578=EDGE_CURVE('',#465,#466,#220,.T.);
#579=EDGE_CURVE('',#466,#433,#221,.T.);
#580=EDGE_CURVE('',#434,#467,#222,.T.);
#581=EDGE_CURVE('',#467,#468,#223,.T.);
#582=EDGE_CURVE('',#457,#468,#224,.T.);
#583=EDGE_CURVE('',#469,#470,#225,.T.);
#584=EDGE_CURVE('',#470,#471,#226,.T.);
#585=EDGE_CURVE('',#472,#471,#227,.T.);
#586=EDGE_CURVE('',#469,#472,#228,.T.);
#587=EDGE_CURVE('',#470,#468,#229,.T.);
#588=EDGE_CURVE('',#471,#467,#230,.T.);
#589=EDGE_CURVE('',#472,#432,#231,.T.);
#590=EDGE_CURVE('',#469,#448,#232,.T.);
#591=EDGE_CURVE('',#473,#466,#233,.T.);
#592=EDGE_CURVE('',#473,#474,#169,.T.);
#593=EDGE_CURVE('',#474,#475,#234,.T.);
#594=EDGE_CURVE('',#475,#476,#170,.T.);
#595=EDGE_CURVE('',#476,#477,#235,.T.);
#596=EDGE_CURVE('',#477,#478,#171,.T.);
#597=EDGE_CURVE('',#478,#479,#236,.T.);
#598=EDGE_CURVE('',#479,#480,#172,.T.);
#599=EDGE_CURVE('',#481,#480,#237,.T.);
#600=EDGE_CURVE('',#428,#481,#238,.T.);
#601=EDGE_CURVE('',#482,#483,#239,.T.);
#602=EDGE_CURVE('',#483,#484,#240,.T.);
#603=EDGE_CURVE('',#485,#484,#241,.T.);
#604=EDGE_CURVE('',#482,#485,#242,.T.);
#605=EDGE_CURVE('',#483,#486,#243,.T.);
#606=EDGE_CURVE('',#487,#486,#244,.T.);
#607=EDGE_CURVE('',#484,#487,#245,.T.);
#608=EDGE_CURVE('',#485,#437,#246,.T.);
#609=EDGE_CURVE('',#440,#487,#247,.T.);
#610=EDGE_CURVE('',#488,#489,#248,.T.);
#611=EDGE_CURVE('',#488,#490,#249,.T.);
#612=EDGE_CURVE('',#491,#490,#250,.T.);
#613=EDGE_CURVE('',#489,#491,#251,.T.);
#614=EDGE_CURVE('',#492,#488,#252,.T.);
#615=EDGE_CURVE('',#492,#493,#253,.T.);
#616=EDGE_CURVE('',#490,#493,#254,.T.);
#617=EDGE_CURVE('',#494,#492,#255,.T.);
#618=EDGE_CURVE('',#494,#495,#256,.T.);
#619=EDGE_CURVE('',#493,#495,#257,.T.);
#620=EDGE_CURVE('',#489,#494,#258,.T.);
#621=EDGE_CURVE('',#495,#491,#259,.T.);
#622=EDGE_CURVE('',#496,#497,#260,.T.);
#623=EDGE_CURVE('',#460,#496,#261,.T.);
#624=EDGE_CURVE('',#497,#459,#262,.T.);
#625=EDGE_CURVE('',#482,#454,#263,.T.);
#626=EDGE_CURVE('',#497,#438,#264,.T.);
#627=EDGE_CURVE('',#498,#498,#173,.T.);
#628=EDGE_CURVE('',#498,#499,#265,.T.);
#629=EDGE_CURVE('',#499,#499,#174,.T.);
#630=EDGE_CURVE('',#500,#500,#175,.T.);
#631=EDGE_CURVE('',#500,#501,#266,.T.);
#632=EDGE_CURVE('',#501,#501,#176,.T.);
#633=EDGE_CURVE('',#480,#473,#267,.T.);
#634=EDGE_CURVE('',#502,#480,#177,.T.);
#635=EDGE_CURVE('',#503,#502,#268,.T.);
#636=EDGE_CURVE('',#473,#503,#178,.T.);
#637=EDGE_CURVE('',#504,#505,#269,.T.);
#638=EDGE_CURVE('',#504,#479,#270,.T.);
#639=EDGE_CURVE('',#505,#478,#271,.T.);
#640=EDGE_CURVE('',#506,#504,#179,.T.);
#641=EDGE_CURVE('',#506,#502,#272,.T.);
#642=EDGE_CURVE('',#507,#506,#273,.T.);
#643=EDGE_CURVE('',#507,#503,#274,.T.);
#644=EDGE_CURVE('',#508,#507,#180,.T.);
#645=EDGE_CURVE('',#508,#474,#275,.T.);
#646=EDGE_CURVE('',#509,#508,#276,.T.);
#647=EDGE_CURVE('',#509,#475,#277,.T.);
#648=EDGE_CURVE('',#510,#509,#181,.T.);
#649=EDGE_CURVE('',#510,#476,#278,.T.);
#650=EDGE_CURVE('',#511,#510,#279,.T.);
#651=EDGE_CURVE('',#511,#477,#280,.T.);
#652=EDGE_CURVE('',#505,#511,#182,.T.);
#653=EDGE_CURVE('',#463,#512,#281,.T.);
#654=EDGE_CURVE('',#513,#462,#282,.T.);
#655=EDGE_CURVE('',#512,#513,#283,.T.);
#656=EDGE_CURVE('',#461,#514,#284,.T.);
#657=EDGE_CURVE('',#514,#513,#285,.T.);
#658=EDGE_CURVE('',#515,#516,#286,.T.);
#659=EDGE_CURVE('',#517,#515,#287,.T.);
#660=EDGE_CURVE('',#517,#518,#288,.T.);
#661=EDGE_CURVE('',#518,#516,#289,.T.);
#662=EDGE_CURVE('',#465,#519,#290,.T.);
#663=EDGE_CURVE('',#481,#519,#291,.T.);
#664=EDGE_CURVE('',#520,#515,#292,.T.);
#665=EDGE_CURVE('',#516,#521,#293,.T.);
#666=EDGE_CURVE('',#521,#520,#294,.T.);
#667=EDGE_CURVE('',#451,#486,#295,.T.);
#668=EDGE_CURVE('',#522,#512,#296,.T.);
#669=EDGE_CURVE('',#464,#522,#297,.T.);
#670=EDGE_CURVE('',#519,#522,#298,.T.);
#671=EDGE_CURVE('',#514,#496,#299,.T.);
#672=EDGE_CURVE('',#523,#524,#300,.T.);
#673=EDGE_CURVE('',#523,#520,#301,.T.);
#674=EDGE_CURVE('',#524,#521,#302,.T.);
#675=EDGE_CURVE('',#524,#518,#303,.T.);
#676=EDGE_CURVE('',#523,#517,#304,.T.);
#677=ORIENTED_EDGE('',*,*,#525,.F.);
#678=ORIENTED_EDGE('',*,*,#526,.F.);
#679=ORIENTED_EDGE('',*,*,#527,.F.);
#680=ORIENTED_EDGE('',*,*,#528,.F.);
#681=ORIENTED_EDGE('',*,*,#529,.F.);
#682=ORIENTED_EDGE('',*,*,#530,.T.);
#683=ORIENTED_EDGE('',*,*,#526,.T.);
#684=ORIENTED_EDGE('',*,*,#531,.F.);
#685=ORIENTED_EDGE('',*,*,#527,.T.);
#686=ORIENTED_EDGE('',*,*,#530,.F.);
#687=ORIENTED_EDGE('',*,*,#532,.F.);
#688=ORIENTED_EDGE('',*,*,#533,.F.);
#689=ORIENTED_EDGE('',*,*,#534,.F.);
#690=ORIENTED_EDGE('',*,*,#535,.F.);
#691=ORIENTED_EDGE('',*,*,#536,.T.);
#692=ORIENTED_EDGE('',*,*,#537,.F.);
#693=ORIENTED_EDGE('',*,*,#533,.T.);
#694=ORIENTED_EDGE('',*,*,#538,.F.);
#695=ORIENTED_EDGE('',*,*,#536,.F.);
#696=ORIENTED_EDGE('',*,*,#539,.F.);
#697=ORIENTED_EDGE('',*,*,#540,.F.);
#698=ORIENTED_EDGE('',*,*,#541,.F.);
#699=ORIENTED_EDGE('',*,*,#542,.F.);
#700=ORIENTED_EDGE('',*,*,#543,.F.);
#701=ORIENTED_EDGE('',*,*,#544,.T.);
#702=ORIENTED_EDGE('',*,*,#540,.T.);
#703=ORIENTED_EDGE('',*,*,#545,.F.);
#704=ORIENTED_EDGE('',*,*,#541,.T.);
#705=ORIENTED_EDGE('',*,*,#544,.F.);
#706=ORIENTED_EDGE('',*,*,#546,.F.);
#707=ORIENTED_EDGE('',*,*,#547,.F.);
#708=ORIENTED_EDGE('',*,*,#548,.F.);
#709=ORIENTED_EDGE('',*,*,#549,.F.);
#710=ORIENTED_EDGE('',*,*,#550,.T.);
#711=ORIENTED_EDGE('',*,*,#551,.F.);
#712=ORIENTED_EDGE('',*,*,#547,.T.);
#713=ORIENTED_EDGE('',*,*,#552,.F.);
#714=ORIENTED_EDGE('',*,*,#550,.F.);
#715=ORIENTED_EDGE('',*,*,#553,.T.);
#716=ORIENTED_EDGE('',*,*,#554,.F.);
#717=ORIENTED_EDGE('',*,*,#555,.F.);
#718=ORIENTED_EDGE('',*,*,#556,.F.);
#719=ORIENTED_EDGE('',*,*,#557,.T.);
#720=ORIENTED_EDGE('',*,*,#556,.T.);
#721=ORIENTED_EDGE('',*,*,#558,.F.);
#722=ORIENTED_EDGE('',*,*,#559,.F.);
#723=ORIENTED_EDGE('',*,*,#531,.T.);
#724=ORIENTED_EDGE('',*,*,#560,.F.);
#725=ORIENTED_EDGE('',*,*,#558,.T.);
#726=ORIENTED_EDGE('',*,*,#555,.T.);
#727=ORIENTED_EDGE('',*,*,#561,.F.);
#728=ORIENTED_EDGE('',*,*,#562,.T.);
#729=ORIENTED_EDGE('',*,*,#563,.F.);
#730=ORIENTED_EDGE('',*,*,#564,.F.);
#731=ORIENTED_EDGE('',*,*,#565,.F.);
#732=ORIENTED_EDGE('',*,*,#566,.T.);
#733=ORIENTED_EDGE('',*,*,#565,.T.);
#734=ORIENTED_EDGE('',*,*,#567,.F.);
#735=ORIENTED_EDGE('',*,*,#568,.F.);
#736=ORIENTED_EDGE('',*,*,#551,.T.);
#737=ORIENTED_EDGE('',*,*,#552,.T.);
#738=ORIENTED_EDGE('',*,*,#569,.F.);
#739=ORIENTED_EDGE('',*,*,#567,.T.);
#740=ORIENTED_EDGE('',*,*,#564,.T.);
#741=ORIENTED_EDGE('',*,*,#570,.F.);
#742=ORIENTED_EDGE('',*,*,#568,.T.);
#743=ORIENTED_EDGE('',*,*,#569,.T.);
#744=ORIENTED_EDGE('',*,*,#546,.T.);
#745=ORIENTED_EDGE('',*,*,#571,.T.);
#746=ORIENTED_EDGE('',*,*,#572,.T.);
#747=ORIENTED_EDGE('',*,*,#573,.F.);
#748=ORIENTED_EDGE('',*,*,#574,.F.);
#749=ORIENTED_EDGE('',*,*,#575,.T.);
#750=ORIENTED_EDGE('',*,*,#576,.T.);
#751=ORIENTED_EDGE('',*,*,#577,.T.);
#752=ORIENTED_EDGE('',*,*,#578,.T.);
#753=ORIENTED_EDGE('',*,*,#579,.T.);
#754=ORIENTED_EDGE('',*,*,#534,.T.);
#755=ORIENTED_EDGE('',*,*,#580,.T.);
#756=ORIENTED_EDGE('',*,*,#581,.T.);
#757=ORIENTED_EDGE('',*,*,#582,.F.);
#758=ORIENTED_EDGE('',*,*,#583,.T.);
#759=ORIENTED_EDGE('',*,*,#584,.T.);
#760=ORIENTED_EDGE('',*,*,#585,.F.);
#761=ORIENTED_EDGE('',*,*,#586,.F.);
#762=ORIENTED_EDGE('',*,*,#587,.T.);
#763=ORIENTED_EDGE('',*,*,#581,.F.);
#764=ORIENTED_EDGE('',*,*,#588,.F.);
#765=ORIENTED_EDGE('',*,*,#584,.F.);
#766=ORIENTED_EDGE('',*,*,#537,.T.);
#767=ORIENTED_EDGE('',*,*,#538,.T.);
#768=ORIENTED_EDGE('',*,*,#589,.F.);
#769=ORIENTED_EDGE('',*,*,#585,.T.);
#770=ORIENTED_EDGE('',*,*,#588,.T.);
#771=ORIENTED_EDGE('',*,*,#580,.F.);
#772=ORIENTED_EDGE('',*,*,#554,.T.);
#773=ORIENTED_EDGE('',*,*,#590,.F.);
#774=ORIENTED_EDGE('',*,*,#586,.T.);
#775=ORIENTED_EDGE('',*,*,#589,.T.);
#776=ORIENTED_EDGE('',*,*,#532,.T.);
#777=ORIENTED_EDGE('',*,*,#579,.F.);
#778=ORIENTED_EDGE('',*,*,#591,.F.);
#779=ORIENTED_EDGE('',*,*,#592,.T.);
#780=ORIENTED_EDGE('',*,*,#593,.T.);
#781=ORIENTED_EDGE('',*,*,#594,.T.);
#782=ORIENTED_EDGE('',*,*,#595,.T.);
#783=ORIENTED_EDGE('',*,*,#596,.T.);
#784=ORIENTED_EDGE('',*,*,#597,.T.);
#785=ORIENTED_EDGE('',*,*,#598,.T.);
#786=ORIENTED_EDGE('',*,*,#599,.F.);
#787=ORIENTED_EDGE('',*,*,#600,.F.);
#788=ORIENTED_EDGE('',*,*,#528,.T.);
#789=ORIENTED_EDGE('',*,*,#561,.T.);
#790=ORIENTED_EDGE('',*,*,#601,.T.);
#791=ORIENTED_EDGE('',*,*,#602,.T.);
#792=ORIENTED_EDGE('',*,*,#603,.F.);
#793=ORIENTED_EDGE('',*,*,#604,.F.);
#794=ORIENTED_EDGE('',*,*,#605,.T.);
#795=ORIENTED_EDGE('',*,*,#606,.F.);
#796=ORIENTED_EDGE('',*,*,#607,.F.);
#797=ORIENTED_EDGE('',*,*,#602,.F.);
#798=ORIENTED_EDGE('',*,*,#545,.T.);
#799=ORIENTED_EDGE('',*,*,#608,.F.);
#800=ORIENTED_EDGE('',*,*,#603,.T.);
#801=ORIENTED_EDGE('',*,*,#607,.T.);
#802=ORIENTED_EDGE('',*,*,#609,.F.);
#803=ORIENTED_EDGE('',*,*,#610,.F.);
#804=ORIENTED_EDGE('',*,*,#611,.T.);
#805=ORIENTED_EDGE('',*,*,#612,.F.);
#806=ORIENTED_EDGE('',*,*,#613,.F.);
#807=ORIENTED_EDGE('',*,*,#614,.F.);
#808=ORIENTED_EDGE('',*,*,#615,.T.);
#809=ORIENTED_EDGE('',*,*,#616,.F.);
#810=ORIENTED_EDGE('',*,*,#611,.F.);
#811=ORIENTED_EDGE('',*,*,#617,.F.);
#812=ORIENTED_EDGE('',*,*,#618,.T.);
#813=ORIENTED_EDGE('',*,*,#619,.F.);
#814=ORIENTED_EDGE('',*,*,#615,.F.);
#815=ORIENTED_EDGE('',*,*,#620,.F.);
#816=ORIENTED_EDGE('',*,*,#613,.T.);
#817=ORIENTED_EDGE('',*,*,#621,.F.);
#818=ORIENTED_EDGE('',*,*,#618,.F.);
#819=ORIENTED_EDGE('',*,*,#622,.F.);
#820=ORIENTED_EDGE('',*,*,#623,.F.);
#821=ORIENTED_EDGE('',*,*,#572,.F.);
#822=ORIENTED_EDGE('',*,*,#624,.F.);
#823=ORIENTED_EDGE('',*,*,#563,.T.);
#824=ORIENTED_EDGE('',*,*,#625,.F.);
#825=ORIENTED_EDGE('',*,*,#604,.T.);
#826=ORIENTED_EDGE('',*,*,#608,.T.);
#827=ORIENTED_EDGE('',*,*,#539,.T.);
#828=ORIENTED_EDGE('',*,*,#626,.F.);
#829=ORIENTED_EDGE('',*,*,#624,.T.);
#830=ORIENTED_EDGE('',*,*,#571,.F.);
#831=ORIENTED_EDGE('',*,*,#548,.T.);
#832=ORIENTED_EDGE('',*,*,#570,.T.);
#833=ORIENTED_EDGE('',*,*,#612,.T.);
#834=ORIENTED_EDGE('',*,*,#616,.T.);
#835=ORIENTED_EDGE('',*,*,#619,.T.);
#836=ORIENTED_EDGE('',*,*,#621,.T.);
#837=ORIENTED_EDGE('',*,*,#627,.F.);
#838=ORIENTED_EDGE('',*,*,#628,.T.);
#839=ORIENTED_EDGE('',*,*,#629,.F.);
#840=ORIENTED_EDGE('',*,*,#628,.F.);
#841=ORIENTED_EDGE('',*,*,#630,.F.);
#842=ORIENTED_EDGE('',*,*,#631,.T.);
#843=ORIENTED_EDGE('',*,*,#632,.F.);
#844=ORIENTED_EDGE('',*,*,#631,.F.);
#845=ORIENTED_EDGE('',*,*,#633,.F.);
#846=ORIENTED_EDGE('',*,*,#634,.F.);
#847=ORIENTED_EDGE('',*,*,#635,.F.);
#848=ORIENTED_EDGE('',*,*,#636,.F.);
#849=ORIENTED_EDGE('',*,*,#637,.F.);
#850=ORIENTED_EDGE('',*,*,#638,.T.);
#851=ORIENTED_EDGE('',*,*,#597,.F.);
#852=ORIENTED_EDGE('',*,*,#639,.F.);
#853=ORIENTED_EDGE('',*,*,#640,.F.);
#854=ORIENTED_EDGE('',*,*,#641,.T.);
#855=ORIENTED_EDGE('',*,*,#634,.T.);
#856=ORIENTED_EDGE('',*,*,#598,.F.);
#857=ORIENTED_EDGE('',*,*,#638,.F.);
#858=ORIENTED_EDGE('',*,*,#642,.F.);
#859=ORIENTED_EDGE('',*,*,#643,.T.);
#860=ORIENTED_EDGE('',*,*,#635,.T.);
#861=ORIENTED_EDGE('',*,*,#641,.F.);
#862=ORIENTED_EDGE('',*,*,#644,.F.);
#863=ORIENTED_EDGE('',*,*,#645,.T.);
#864=ORIENTED_EDGE('',*,*,#592,.F.);
#865=ORIENTED_EDGE('',*,*,#636,.T.);
#866=ORIENTED_EDGE('',*,*,#643,.F.);
#867=ORIENTED_EDGE('',*,*,#646,.F.);
#868=ORIENTED_EDGE('',*,*,#647,.T.);
#869=ORIENTED_EDGE('',*,*,#593,.F.);
#870=ORIENTED_EDGE('',*,*,#645,.F.);
#871=ORIENTED_EDGE('',*,*,#648,.F.);
#872=ORIENTED_EDGE('',*,*,#649,.T.);
#873=ORIENTED_EDGE('',*,*,#594,.F.);
#874=ORIENTED_EDGE('',*,*,#647,.F.);
#875=ORIENTED_EDGE('',*,*,#650,.F.);
#876=ORIENTED_EDGE('',*,*,#651,.T.);
#877=ORIENTED_EDGE('',*,*,#595,.F.);
#878=ORIENTED_EDGE('',*,*,#649,.F.);
#879=ORIENTED_EDGE('',*,*,#652,.F.);
#880=ORIENTED_EDGE('',*,*,#639,.T.);
#881=ORIENTED_EDGE('',*,*,#596,.F.);
#882=ORIENTED_EDGE('',*,*,#651,.F.);
#883=ORIENTED_EDGE('',*,*,#653,.F.);
#884=ORIENTED_EDGE('',*,*,#575,.F.);
#885=ORIENTED_EDGE('',*,*,#654,.F.);
#886=ORIENTED_EDGE('',*,*,#655,.F.);
#887=ORIENTED_EDGE('',*,*,#629,.T.);
#888=ORIENTED_EDGE('',*,*,#632,.T.);
#889=ORIENTED_EDGE('',*,*,#654,.T.);
#890=ORIENTED_EDGE('',*,*,#574,.T.);
#891=ORIENTED_EDGE('',*,*,#656,.T.);
#892=ORIENTED_EDGE('',*,*,#657,.T.);
#893=ORIENTED_EDGE('',*,*,#658,.F.);
#894=ORIENTED_EDGE('',*,*,#659,.F.);
#895=ORIENTED_EDGE('',*,*,#660,.T.);
#896=ORIENTED_EDGE('',*,*,#661,.T.);
#897=ORIENTED_EDGE('',*,*,#599,.T.);
#898=ORIENTED_EDGE('',*,*,#633,.T.);
#899=ORIENTED_EDGE('',*,*,#591,.T.);
#900=ORIENTED_EDGE('',*,*,#578,.F.);
#901=ORIENTED_EDGE('',*,*,#662,.T.);
#902=ORIENTED_EDGE('',*,*,#663,.F.);
#903=ORIENTED_EDGE('',*,*,#664,.T.);
#904=ORIENTED_EDGE('',*,*,#658,.T.);
#905=ORIENTED_EDGE('',*,*,#665,.T.);
#906=ORIENTED_EDGE('',*,*,#666,.T.);
#907=ORIENTED_EDGE('',*,*,#529,.T.);
#908=ORIENTED_EDGE('',*,*,#535,.T.);
#909=ORIENTED_EDGE('',*,*,#543,.T.);
#910=ORIENTED_EDGE('',*,*,#549,.T.);
#911=ORIENTED_EDGE('',*,*,#582,.T.);
#912=ORIENTED_EDGE('',*,*,#587,.F.);
#913=ORIENTED_EDGE('',*,*,#583,.F.);
#914=ORIENTED_EDGE('',*,*,#590,.T.);
#915=ORIENTED_EDGE('',*,*,#553,.F.);
#916=ORIENTED_EDGE('',*,*,#557,.F.);
#917=ORIENTED_EDGE('',*,*,#667,.T.);
#918=ORIENTED_EDGE('',*,*,#605,.F.);
#919=ORIENTED_EDGE('',*,*,#601,.F.);
#920=ORIENTED_EDGE('',*,*,#625,.T.);
#921=ORIENTED_EDGE('',*,*,#562,.F.);
#922=ORIENTED_EDGE('',*,*,#566,.F.);
#923=ORIENTED_EDGE('',*,*,#653,.T.);
#924=ORIENTED_EDGE('',*,*,#668,.F.);
#925=ORIENTED_EDGE('',*,*,#669,.F.);
#926=ORIENTED_EDGE('',*,*,#576,.F.);
#927=ORIENTED_EDGE('',*,*,#669,.T.);
#928=ORIENTED_EDGE('',*,*,#670,.F.);
#929=ORIENTED_EDGE('',*,*,#662,.F.);
#930=ORIENTED_EDGE('',*,*,#577,.F.);
#931=ORIENTED_EDGE('',*,*,#560,.T.);
#932=ORIENTED_EDGE('',*,*,#525,.T.);
#933=ORIENTED_EDGE('',*,*,#600,.T.);
#934=ORIENTED_EDGE('',*,*,#663,.T.);
#935=ORIENTED_EDGE('',*,*,#670,.T.);
#936=ORIENTED_EDGE('',*,*,#668,.T.);
#937=ORIENTED_EDGE('',*,*,#655,.T.);
#938=ORIENTED_EDGE('',*,*,#657,.F.);
#939=ORIENTED_EDGE('',*,*,#671,.T.);
#940=ORIENTED_EDGE('',*,*,#622,.T.);
#941=ORIENTED_EDGE('',*,*,#626,.T.);
#942=ORIENTED_EDGE('',*,*,#542,.T.);
#943=ORIENTED_EDGE('',*,*,#609,.T.);
#944=ORIENTED_EDGE('',*,*,#606,.T.);
#945=ORIENTED_EDGE('',*,*,#667,.F.);
#946=ORIENTED_EDGE('',*,*,#559,.T.);
#947=ORIENTED_EDGE('',*,*,#672,.F.);
#948=ORIENTED_EDGE('',*,*,#673,.T.);
#949=ORIENTED_EDGE('',*,*,#666,.F.);
#950=ORIENTED_EDGE('',*,*,#674,.F.);
#951=ORIENTED_EDGE('',*,*,#665,.F.);
#952=ORIENTED_EDGE('',*,*,#661,.F.);
#953=ORIENTED_EDGE('',*,*,#675,.F.);
#954=ORIENTED_EDGE('',*,*,#674,.T.);
#955=ORIENTED_EDGE('',*,*,#627,.T.);
#956=ORIENTED_EDGE('',*,*,#630,.T.);
#957=ORIENTED_EDGE('',*,*,#637,.T.);
#958=ORIENTED_EDGE('',*,*,#652,.T.);
#959=ORIENTED_EDGE('',*,*,#650,.T.);
#960=ORIENTED_EDGE('',*,*,#648,.T.);
#961=ORIENTED_EDGE('',*,*,#646,.T.);
#962=ORIENTED_EDGE('',*,*,#644,.T.);
#963=ORIENTED_EDGE('',*,*,#642,.T.);
#964=ORIENTED_EDGE('',*,*,#640,.T.);
#965=ORIENTED_EDGE('',*,*,#664,.F.);
#966=ORIENTED_EDGE('',*,*,#673,.F.);
#967=ORIENTED_EDGE('',*,*,#676,.T.);
#968=ORIENTED_EDGE('',*,*,#659,.T.);
#969=ORIENTED_EDGE('',*,*,#610,.T.);
#970=ORIENTED_EDGE('',*,*,#620,.T.);
#971=ORIENTED_EDGE('',*,*,#617,.T.);
#972=ORIENTED_EDGE('',*,*,#614,.T.);
#973=ORIENTED_EDGE('',*,*,#623,.T.);
#974=ORIENTED_EDGE('',*,*,#671,.F.);
#975=ORIENTED_EDGE('',*,*,#656,.F.);
#976=ORIENTED_EDGE('',*,*,#573,.T.);
#977=ORIENTED_EDGE('',*,*,#660,.F.);
#978=ORIENTED_EDGE('',*,*,#676,.F.);
#979=ORIENTED_EDGE('',*,*,#672,.T.);
#980=ORIENTED_EDGE('',*,*,#675,.T.);
#981=PLANE('',#1087);
#982=PLANE('',#1093);
#983=PLANE('',#1099);
#984=PLANE('',#1105);
#985=PLANE('',#1111);
#986=PLANE('',#1112);
#987=PLANE('',#1113);
#988=PLANE('',#1114);
#989=PLANE('',#1115);
#990=PLANE('',#1116);
#991=PLANE('',#1117);
#992=PLANE('',#1118);
#993=PLANE('',#1119);
#994=PLANE('',#1120);
#995=PLANE('',#1121);
#996=PLANE('',#1126);
#997=PLANE('',#1127);
#998=PLANE('',#1128);
#999=PLANE('',#1129);
#1000=PLANE('',#1130);
#1001=PLANE('',#1131);
#1002=PLANE('',#1132);
#1003=PLANE('',#1133);
#1004=PLANE('',#1134);
#1005=PLANE('',#1141);
#1006=PLANE('',#1144);
#1007=PLANE('',#1147);
#1008=PLANE('',#1150);
#1009=PLANE('',#1153);
#1010=PLANE('',#1156);
#1011=PLANE('',#1157);
#1012=PLANE('',#1158);
#1013=PLANE('',#1159);
#1014=PLANE('',#1160);
#1015=PLANE('',#1161);
#1016=PLANE('',#1162);
#1017=PLANE('',#1163);
#1018=PLANE('',#1164);
#1019=PLANE('',#1165);
#1020=PLANE('',#1166);
#1021=PLANE('',#1167);
#1022=ADVANCED_FACE('',(#38),#981,.T.);
#1023=ADVANCED_FACE('',(#39),#28,.F.);
#1024=ADVANCED_FACE('',(#40),#982,.T.);
#1025=ADVANCED_FACE('',(#41),#29,.F.);
#1026=ADVANCED_FACE('',(#42),#983,.T.);
#1027=ADVANCED_FACE('',(#43),#30,.F.);
#1028=ADVANCED_FACE('',(#44),#984,.T.);
#1029=ADVANCED_FACE('',(#45),#31,.F.);
#1030=ADVANCED_FACE('',(#46),#985,.T.);
#1031=ADVANCED_FACE('',(#47),#986,.T.);
#1032=ADVANCED_FACE('',(#48),#987,.T.);
#1033=ADVANCED_FACE('',(#49),#988,.T.);
#1034=ADVANCED_FACE('',(#50),#989,.T.);
#1035=ADVANCED_FACE('',(#51),#990,.T.);
#1036=ADVANCED_FACE('',(#52),#991,.T.);
#1037=ADVANCED_FACE('',(#53),#992,.T.);
#1038=ADVANCED_FACE('',(#54),#993,.T.);
#1039=ADVANCED_FACE('',(#55),#994,.T.);
#1040=ADVANCED_FACE('',(#56),#995,.T.);
#1041=ADVANCED_FACE('',(#57),#996,.T.);
#1042=ADVANCED_FACE('',(#58),#997,.T.);
#1043=ADVANCED_FACE('',(#59),#998,.T.);
#1044=ADVANCED_FACE('',(#60),#999,.F.);
#1045=ADVANCED_FACE('',(#61),#1000,.F.);
#1046=ADVANCED_FACE('',(#62),#1001,.F.);
#1047=ADVANCED_FACE('',(#63),#1002,.F.);
#1048=ADVANCED_FACE('',(#64),#1003,.F.);
#1049=ADVANCED_FACE('',(#65,#15),#1004,.T.);
#1050=ADVANCED_FACE('',(#66),#32,.F.);
#1051=ADVANCED_FACE('',(#67),#33,.F.);
#1052=ADVANCED_FACE('',(#68),#1005,.T.);
#1053=ADVANCED_FACE('',(#69),#1006,.F.);
#1054=ADVANCED_FACE('',(#70),#34,.F.);
#1055=ADVANCED_FACE('',(#71),#1007,.F.);
#1056=ADVANCED_FACE('',(#72),#35,.F.);
#1057=ADVANCED_FACE('',(#73),#1008,.F.);
#1058=ADVANCED_FACE('',(#74),#36,.F.);
#1059=ADVANCED_FACE('',(#75),#1009,.F.);
#1060=ADVANCED_FACE('',(#76),#37,.F.);
#1061=ADVANCED_FACE('',(#77,#16,#17),#1010,.T.);
#1062=ADVANCED_FACE('',(#78),#1011,.T.);
#1063=ADVANCED_FACE('',(#79),#1012,.T.);
#1064=ADVANCED_FACE('',(#80),#1013,.T.);
#1065=ADVANCED_FACE('',(#81,#18,#19,#20,#21,#22),#1014,.T.);
#1066=ADVANCED_FACE('',(#82),#1015,.F.);
#1067=ADVANCED_FACE('',(#83),#1016,.T.);
#1068=ADVANCED_FACE('',(#84),#1017,.T.);
#1069=ADVANCED_FACE('',(#85),#1018,.T.);
#1070=ADVANCED_FACE('',(#86,#23,#24,#25),#1019,.T.);
#1071=ADVANCED_FACE('',(#87,#26,#27),#1020,.T.);
#1072=ADVANCED_FACE('',(#88),#1021,.F.);
#1073=CLOSED_SHELL('',(#1022,#1023,#1024,#1025,#1026,#1027,#1028,#1029,
#1030,#1031,#1032,#1033,#1034,#1035,#1036,#1037,#1038,#1039,#1040,#1041,
#1042,#1043,#1044,#1045,#1046,#1047,#1048,#1049,#1050,#1051,#1052,#1053,
#1054,#1055,#1056,#1057,#1058,#1059,#1060,#1061,#1062,#1063,#1064,#1065,
#1066,#1067,#1068,#1069,#1070,#1071,#1072));
#1074=DERIVED_UNIT_ELEMENT(#1076,1.);
#1075=DERIVED_UNIT_ELEMENT(#1761,-3.);
#1076=(
MASS_UNIT()
NAMED_UNIT(*)
SI_UNIT(.KILO.,.GRAM.)
);
#1077=DERIVED_UNIT((#1074,#1075));
#1078=MEASURE_REPRESENTATION_ITEM('density measure',
POSITIVE_RATIO_MEASURE(7850.),#1077);
#1079=PROPERTY_DEFINITION_REPRESENTATION(#1084,#1081);
#1080=PROPERTY_DEFINITION_REPRESENTATION(#1085,#1082);
#1081=REPRESENTATION('material name',(#1083),#1758);
#1082=REPRESENTATION('density',(#1078),#1758);
#1083=DESCRIPTIVE_REPRESENTATION_ITEM('Steel','Steel');
#1084=PROPERTY_DEFINITION('material property','material name',#1768);
#1085=PROPERTY_DEFINITION('material property','density of part',#1768);
#1086=AXIS2_PLACEMENT_3D('',#1454,#1168,#1169);
#1087=AXIS2_PLACEMENT_3D('',#1455,#1170,#1171);
#1088=AXIS2_PLACEMENT_3D('',#1460,#1173,#1174);
#1089=AXIS2_PLACEMENT_3D('',#1462,#1175,#1176);
#1090=AXIS2_PLACEMENT_3D('',#1464,#1178,#1179);
#1091=AXIS2_PLACEMENT_3D('',#1466,#1180,#1181);
#1092=AXIS2_PLACEMENT_3D('',#1468,#1183,#1184);
#1093=AXIS2_PLACEMENT_3D('',#1469,#1185,#1186);
#1094=AXIS2_PLACEMENT_3D('',#1474,#1188,#1189);
#1095=AXIS2_PLACEMENT_3D('',#1476,#1191,#1192);
#1096=AXIS2_PLACEMENT_3D('',#1478,#1193,#1194);
#1097=AXIS2_PLACEMENT_3D('',#1481,#1196,#1197);
#1098=AXIS2_PLACEMENT_3D('',#1482,#1198,#1199);
#1099=AXIS2_PLACEMENT_3D('',#1483,#1200,#1201);
#1100=AXIS2_PLACEMENT_3D('',#1488,#1203,#1204);
#1101=AXIS2_PLACEMENT_3D('',#1490,#1205,#1206);
#1102=AXIS2_PLACEMENT_3D('',#1492,#1208,#1209);
#1103=AXIS2_PLACEMENT_3D('',#1494,#1210,#1211);
#1104=AXIS2_PLACEMENT_3D('',#1496,#1213,#1214);
#1105=AXIS2_PLACEMENT_3D('',#1497,#1215,#1216);
#1106=AXIS2_PLACEMENT_3D('',#1502,#1218,#1219);
#1107=AXIS2_PLACEMENT_3D('',#1504,#1221,#1222);
#1108=AXIS2_PLACEMENT_3D('',#1506,#1223,#1224);
#1109=AXIS2_PLACEMENT_3D('',#1509,#1226,#1227);
#1110=AXIS2_PLACEMENT_3D('',#1510,#1228,#1229);
#1111=AXIS2_PLACEMENT_3D('',#1511,#1230,#1231);
#1112=AXIS2_PLACEMENT_3D('',#1520,#1236,#1237);
#1113=AXIS2_PLACEMENT_3D('',#1526,#1241,#1242);
#1114=AXIS2_PLACEMENT_3D('',#1529,#1245,#1246);
#1115=AXIS2_PLACEMENT_3D('',#1538,#1251,#1252);
#1116=AXIS2_PLACEMENT_3D('',#1544,#1256,#1257);
#1117=AXIS2_PLACEMENT_3D('',#1547,#1260,#1261);
#1118=AXIS2_PLACEMENT_3D('',#1570,#1274,#1275);
#1119=AXIS2_PLACEMENT_3D('',#1579,#1280,#1281);
#1120=AXIS2_PLACEMENT_3D('',#1582,#1284,#1285);
#1121=AXIS2_PLACEMENT_3D('',#1584,#1287,#1288);
#1122=AXIS2_PLACEMENT_3D('',#1589,#1291,#1292);
#1123=AXIS2_PLACEMENT_3D('',#1593,#1294,#1295);
#1124=AXIS2_PLACEMENT_3D('',#1597,#1297,#1298);
#1125=AXIS2_PLACEMENT_3D('',#1601,#1300,#1301);
#1126=AXIS2_PLACEMENT_3D('',#1605,#1304,#1305);
#1127=AXIS2_PLACEMENT_3D('',#1614,#1310,#1311);
#1128=AXIS2_PLACEMENT_3D('',#1620,#1315,#1316);
#1129=AXIS2_PLACEMENT_3D('',#1623,#1319,#1320);
#1130=AXIS2_PLACEMENT_3D('',#1632,#1325,#1326);
#1131=AXIS2_PLACEMENT_3D('',#1638,#1330,#1331);
#1132=AXIS2_PLACEMENT_3D('',#1644,#1335,#1336);
#1133=AXIS2_PLACEMENT_3D('',#1647,#1339,#1340);
#1134=AXIS2_PLACEMENT_3D('',#1653,#1344,#1345);
#1135=AXIS2_PLACEMENT_3D('',#1656,#1348,#1349);
#1136=AXIS2_PLACEMENT_3D('',#1658,#1350,#1351);
#1137=AXIS2_PLACEMENT_3D('',#1661,#1353,#1354);
#1138=AXIS2_PLACEMENT_3D('',#1662,#1355,#1356);
#1139=AXIS2_PLACEMENT_3D('',#1664,#1357,#1358);
#1140=AXIS2_PLACEMENT_3D('',#1667,#1360,#1361);
#1141=AXIS2_PLACEMENT_3D('',#1668,#1362,#1363);
#1142=AXIS2_PLACEMENT_3D('',#1671,#1365,#1366);
#1143=AXIS2_PLACEMENT_3D('',#1674,#1368,#1369);
#1144=AXIS2_PLACEMENT_3D('',#1675,#1370,#1371);
#1145=AXIS2_PLACEMENT_3D('',#1681,#1375,#1376);
#1146=AXIS2_PLACEMENT_3D('',#1683,#1377,#1378);
#1147=AXIS2_PLACEMENT_3D('',#1685,#1380,#1381);
#1148=AXIS2_PLACEMENT_3D('',#1689,#1384,#1385);
#1149=AXIS2_PLACEMENT_3D('',#1691,#1386,#1387);
#1150=AXIS2_PLACEMENT_3D('',#1693,#1389,#1390);
#1151=AXIS2_PLACEMENT_3D('',#1697,#1393,#1394);
#1152=AXIS2_PLACEMENT_3D('',#1699,#1395,#1396);
#1153=AXIS2_PLACEMENT_3D('',#1701,#1398,#1399);
#1154=AXIS2_PLACEMENT_3D('',#1705,#1402,#1403);
#1155=AXIS2_PLACEMENT_3D('',#1706,#1404,#1405);
#1156=AXIS2_PLACEMENT_3D('',#1707,#1406,#1407);
#1157=AXIS2_PLACEMENT_3D('',#1713,#1411,#1412);
#1158=AXIS2_PLACEMENT_3D('',#1717,#1415,#1416);
#1159=AXIS2_PLACEMENT_3D('',#1726,#1421,#1422);
#1160=AXIS2_PLACEMENT_3D('',#1730,#1425,#1426);
#1161=AXIS2_PLACEMENT_3D('',#1737,#1431,#1432);
#1162=AXIS2_PLACEMENT_3D('',#1741,#1435,#1436);
#1163=AXIS2_PLACEMENT_3D('',#1743,#1438,#1439);
#1164=AXIS2_PLACEMENT_3D('',#1745,#1441,#1442);
#1165=AXIS2_PLACEMENT_3D('',#1751,#1446,#1447);
#1166=AXIS2_PLACEMENT_3D('',#1753,#1449,#1450);
#1167=AXIS2_PLACEMENT_3D('',#1755,#1452,#1453);
#1168=DIRECTION('axis',(0.,0.,1.));
#1169=DIRECTION('refdir',(1.,0.,0.));
#1170=DIRECTION('center_axis',(0.,0.,1.));
#1171=DIRECTION('ref_axis',(-1.,0.,0.));
#1172=DIRECTION('',(2.61228946970625E-17,1.,0.));
#1173=DIRECTION('center_axis',(0.,0.,-1.));
#1174=DIRECTION('ref_axis',(-1.,0.,0.));
#1175=DIRECTION('center_axis',(0.,0.,-1.));
#1176=DIRECTION('ref_axis',(-1.,0.,0.));
#1177=DIRECTION('',(-1.,0.,0.));
#1178=DIRECTION('center_axis',(0.,0.,-1.));
#1179=DIRECTION('ref_axis',(-1.,0.,0.));
#1180=DIRECTION('center_axis',(0.,0.,-1.));
#1181=DIRECTION('ref_axis',(-1.,0.,0.));
#1182=DIRECTION('',(0.,0.,-1.));
#1183=DIRECTION('center_axis',(0.,0.,1.));
#1184=DIRECTION('ref_axis',(-1.,0.,0.));
#1185=DIRECTION('center_axis',(0.,0.,1.));
#1186=DIRECTION('ref_axis',(-1.,0.,0.));
#1187=DIRECTION('',(-1.,0.,0.));
#1188=DIRECTION('center_axis',(0.,0.,-1.));
#1189=DIRECTION('ref_axis',(-1.,0.,0.));
#1190=DIRECTION('',(0.,-1.,0.));
#1191=DIRECTION('center_axis',(0.,0.,-1.));
#1192=DIRECTION('ref_axis',(-1.,0.,0.));
#1193=DIRECTION('center_axis',(0.,0.,-1.));
#1194=DIRECTION('ref_axis',(-1.,0.,0.));
#1195=DIRECTION('',(0.,0.,-1.));
#1196=DIRECTION('center_axis',(0.,0.,1.));
#1197=DIRECTION('ref_axis',(-1.,0.,0.));
#1198=DIRECTION('center_axis',(0.,0.,1.));
#1199=DIRECTION('ref_axis',(-1.,0.,0.));
#1200=DIRECTION('center_axis',(0.,0.,1.));
#1201=DIRECTION('ref_axis',(-1.,0.,0.));
#1202=DIRECTION('',(1.,0.,0.));
#1203=DIRECTION('center_axis',(0.,0.,-1.));
#1204=DIRECTION('ref_axis',(-1.,0.,0.));
#1205=DIRECTION('center_axis',(0.,0.,-1.));
#1206=DIRECTION('ref_axis',(-1.,0.,0.));
#1207=DIRECTION('',(2.61228946970625E-17,1.,0.));
#1208=DIRECTION('center_axis',(0.,0.,-1.));
#1209=DIRECTION('ref_axis',(-1.,0.,0.));
#1210=DIRECTION('center_axis',(0.,0.,-1.));
#1211=DIRECTION('ref_axis',(-1.,0.,0.));
#1212=DIRECTION('',(0.,0.,-1.));
#1213=DIRECTION('center_axis',(0.,0.,1.));
#1214=DIRECTION('ref_axis',(-1.,0.,0.));
#1215=DIRECTION('center_axis',(0.,0.,1.));
#1216=DIRECTION('ref_axis',(-1.,0.,0.));
#1217=DIRECTION('',(0.,-1.,0.));
#1218=DIRECTION('center_axis',(0.,0.,-1.));
#1219=DIRECTION('ref_axis',(-1.,0.,0.));
#1220=DIRECTION('',(1.,0.,0.));
#1221=DIRECTION('center_axis',(0.,0.,-1.));
#1222=DIRECTION('ref_axis',(-1.,0.,0.));
#1223=DIRECTION('center_axis',(0.,0.,-1.));
#1224=DIRECTION('ref_axis',(-1.,0.,0.));
#1225=DIRECTION('',(0.,0.,-1.));
#1226=DIRECTION('center_axis',(0.,0.,1.));
#1227=DIRECTION('ref_axis',(-1.,0.,0.));
#1228=DIRECTION('center_axis',(0.,0.,1.));
#1229=DIRECTION('ref_axis',(-1.,0.,0.));
#1230=DIRECTION('center_axis',(-1.,0.,0.));
#1231=DIRECTION('ref_axis',(0.,1.,0.));
#1232=DIRECTION('',(0.,1.,0.));
#1233=DIRECTION('',(0.,0.,1.));
#1234=DIRECTION('',(0.,1.,0.));
#1235=DIRECTION('',(0.,0.,-1.));
#1236=DIRECTION('center_axis',(0.,-1.,0.));
#1237=DIRECTION('ref_axis',(-1.,0.,0.));
#1238=DIRECTION('',(-1.,0.,0.));
#1239=DIRECTION('',(-1.,0.,0.));
#1240=DIRECTION('',(0.,0.,-1.));
#1241=DIRECTION('center_axis',(0.,0.,-1.));
#1242=DIRECTION('ref_axis',(-1.,0.,0.));
#1243=DIRECTION('',(2.61228946970625E-17,1.,0.));
#1244=DIRECTION('',(-1.,0.,0.));
#1245=DIRECTION('center_axis',(1.,0.,0.));
#1246=DIRECTION('ref_axis',(0.,-1.,0.));
#1247=DIRECTION('',(0.,-1.,0.));
#1248=DIRECTION('',(0.,0.,1.));
#1249=DIRECTION('',(0.,-1.,0.));
#1250=DIRECTION('',(0.,0.,-1.));
#1251=DIRECTION('center_axis',(0.,1.,0.));
#1252=DIRECTION('ref_axis',(1.,0.,0.));
#1253=DIRECTION('',(1.,0.,0.));
#1254=DIRECTION('',(1.,0.,0.));
#1255=DIRECTION('',(0.,0.,-1.));
#1256=DIRECTION('center_axis',(0.,0.,-1.));
#1257=DIRECTION('ref_axis',(-1.,0.,0.));
#1258=DIRECTION('',(0.,-1.,0.));
#1259=DIRECTION('',(1.,0.,0.));
#1260=DIRECTION('center_axis',(1.,0.,0.));
#1261=DIRECTION('ref_axis',(0.,1.,0.));
#1262=DIRECTION('',(0.,0.,-1.));
#1263=DIRECTION('',(0.,-1.,0.));
#1264=DIRECTION('',(0.,0.,1.));
#1265=DIRECTION('',(0.,-1.,0.));
#1266=DIRECTION('',(0.,0.,1.));
#1267=DIRECTION('',(0.,-1.,0.));
#1268=DIRECTION('',(0.,0.,1.));
#1269=DIRECTION('',(0.,1.,0.));
#1270=DIRECTION('',(0.,0.,1.));
#1271=DIRECTION('',(0.,-1.,0.));
#1272=DIRECTION('',(0.,0.,1.));
#1273=DIRECTION('',(0.,1.,0.));
#1274=DIRECTION('center_axis',(1.,0.,0.));
#1275=DIRECTION('ref_axis',(0.,-1.,0.));
#1276=DIRECTION('',(0.,-1.,0.));
#1277=DIRECTION('',(0.,0.,-1.));
#1278=DIRECTION('',(0.,-1.,0.));
#1279=DIRECTION('',(0.,0.,-1.));
#1280=DIRECTION('center_axis',(0.,-1.,0.));
#1281=DIRECTION('ref_axis',(-1.,0.,0.));
#1282=DIRECTION('',(-1.,0.,0.));
#1283=DIRECTION('',(-1.,0.,0.));
#1284=DIRECTION('center_axis',(0.,0.,-1.));
#1285=DIRECTION('ref_axis',(-1.,0.,0.));
#1286=DIRECTION('',(-1.,0.,0.));
#1287=DIRECTION('center_axis',(0.,-1.,0.));
#1288=DIRECTION('ref_axis',(1.,0.,0.));
#1289=DIRECTION('',(1.,0.,0.));
#1290=DIRECTION('',(-1.,0.,0.));
#1291=DIRECTION('center_axis',(0.,1.,0.));
#1292=DIRECTION('ref_axis',(-0.020547184103715,0.,-0.999788884327791));
#1293=DIRECTION('',(3.37126623590783E-12,0.,1.));
#1294=DIRECTION('center_axis',(0.,1.,0.));
#1295=DIRECTION('ref_axis',(-0.985915493002087,0.,0.16724425448562));
#1296=DIRECTION('',(1.,0.,0.));
#1297=DIRECTION('center_axis',(0.,1.,0.));
#1298=DIRECTION('ref_axis',(-9.57088832446075E-16,0.,1.));
#1299=DIRECTION('',(2.02140648653429E-16,0.,-1.));
#1300=DIRECTION('center_axis',(0.,1.,0.));
#1301=DIRECTION('ref_axis',(1.,0.,-7.18187506305214E-15));
#1302=DIRECTION('',(-1.,0.,0.));
#1303=DIRECTION('',(0.,0.,-1.));
#1304=DIRECTION('center_axis',(-1.,0.,0.));
#1305=DIRECTION('ref_axis',(0.,1.,0.));
#1306=DIRECTION('',(0.,1.,0.));
#1307=DIRECTION('',(0.,0.,-1.));
#1308=DIRECTION('',(0.,1.,0.));
#1309=DIRECTION('',(0.,0.,-1.));
#1310=DIRECTION('center_axis',(0.,1.,0.));
#1311=DIRECTION('ref_axis',(1.,0.,0.));
#1312=DIRECTION('',(1.,0.,0.));
#1313=DIRECTION('',(0.,0.,1.));
#1314=DIRECTION('',(1.,0.,0.));
#1315=DIRECTION('center_axis',(0.,0.,-1.));
#1316=DIRECTION('ref_axis',(-1.,0.,0.));
#1317=DIRECTION('',(1.,0.,0.));
#1318=DIRECTION('',(2.61228946970625E-17,1.,0.));
#1319=DIRECTION('center_axis',(0.,0.,-1.));
#1320=DIRECTION('ref_axis',(-1.,0.,0.));
#1321=DIRECTION('',(-1.,0.,0.));
#1322=DIRECTION('',(0.,1.,0.));
#1323=DIRECTION('',(1.,0.,0.));
#1324=DIRECTION('',(0.,1.,0.));
#1325=DIRECTION('center_axis',(1.,0.,0.));
#1326=DIRECTION('ref_axis',(0.,0.,-1.));
#1327=DIRECTION('',(0.,0.,-1.));
#1328=DIRECTION('',(0.,1.,0.));
#1329=DIRECTION('',(0.,0.,1.));
#1330=DIRECTION('center_axis',(0.,0.,1.));
#1331=DIRECTION('ref_axis',(1.,0.,0.));
#1332=DIRECTION('',(1.,0.,0.));
#1333=DIRECTION('',(0.,1.,0.));
#1334=DIRECTION('',(-1.,0.,0.));
#1335=DIRECTION('center_axis',(-1.,0.,0.));
#1336=DIRECTION('ref_axis',(0.,0.,1.));
#1337=DIRECTION('',(0.,0.,1.));
#1338=DIRECTION('',(0.,0.,-1.));
#1339=DIRECTION('center_axis',(0.,0.,1.));
#1340=DIRECTION('ref_axis',(1.,0.,0.));
#1341=DIRECTION('',(2.61228946970625E-17,1.,0.));
#1342=DIRECTION('',(1.,0.,0.));
#1343=DIRECTION('',(-1.,0.,0.));
#1344=DIRECTION('center_axis',(0.,1.,0.));
#1345=DIRECTION('ref_axis',(-1.,0.,0.));
#1346=DIRECTION('',(-1.,0.,0.));
#1347=DIRECTION('',(0.,0.,1.));
#1348=DIRECTION('center_axis',(0.,-1.,0.));
#1349=DIRECTION('ref_axis',(-1.,0.,0.));
#1350=DIRECTION('center_axis',(0.,-1.,0.));
#1351=DIRECTION('ref_axis',(-1.,0.,0.));
#1352=DIRECTION('',(0.,-1.,0.));
#1353=DIRECTION('center_axis',(0.,1.,0.));
#1354=DIRECTION('ref_axis',(-1.,0.,0.));
#1355=DIRECTION('center_axis',(0.,-1.,0.));
#1356=DIRECTION('ref_axis',(-1.,0.,0.));
#1357=DIRECTION('center_axis',(0.,-1.,0.));
#1358=DIRECTION('ref_axis',(-1.,0.,0.));
#1359=DIRECTION('',(0.,-1.,0.));
#1360=DIRECTION('center_axis',(0.,1.,0.));
#1361=DIRECTION('ref_axis',(-1.,0.,0.));
#1362=DIRECTION('center_axis',(0.,1.,0.));
#1363=DIRECTION('ref_axis',(-1.,0.,0.));
#1364=DIRECTION('',(-1.,0.,0.));
#1365=DIRECTION('center_axis',(0.,-1.,0.));
#1366=DIRECTION('ref_axis',(1.,0.,-7.18187506305214E-15));
#1367=DIRECTION('',(1.,0.,0.));
#1368=DIRECTION('center_axis',(0.,-1.,0.));
#1369=DIRECTION('ref_axis',(-0.020547184103715,0.,-0.999788884327791));
#1370=DIRECTION('center_axis',(1.,0.,2.02140648653429E-16));
#1371=DIRECTION('ref_axis',(-2.02140648653429E-16,0.,1.));
#1372=DIRECTION('',(-2.02140648653429E-16,0.,1.));
#1373=DIRECTION('',(0.,-1.,0.));
#1374=DIRECTION('',(0.,-1.,0.));
#1375=DIRECTION('center_axis',(0.,-1.,0.));
#1376=DIRECTION('ref_axis',(1.,0.,-7.18187506305214E-15));
#1377=DIRECTION('center_axis',(0.,-1.,0.));
#1378=DIRECTION('ref_axis',(1.,0.,-7.18187506305214E-15));
#1379=DIRECTION('',(0.,-1.,0.));
#1380=DIRECTION('center_axis',(0.,0.,-1.));
#1381=DIRECTION('ref_axis',(1.,0.,0.));
#1382=DIRECTION('',(1.,0.,0.));
#1383=DIRECTION('',(0.,-1.,0.));
#1384=DIRECTION('center_axis',(0.,-1.,0.));
#1385=DIRECTION('ref_axis',(-0.020547184103715,0.,-0.999788884327791));
#1386=DIRECTION('center_axis',(0.,-1.,0.));
#1387=DIRECTION('ref_axis',(-0.020547184103715,0.,-0.999788884327791));
#1388=DIRECTION('',(0.,-1.,0.));
#1389=DIRECTION('center_axis',(-1.,0.,3.37126623590783E-12));
#1390=DIRECTION('ref_axis',(-3.37126623590783E-12,0.,-1.));
#1391=DIRECTION('',(-3.37126623590783E-12,0.,-1.));
#1392=DIRECTION('',(0.,-1.,0.));
#1393=DIRECTION('center_axis',(0.,-1.,0.));
#1394=DIRECTION('ref_axis',(-0.985915493002087,0.,0.16724425448562));
#1395=DIRECTION('center_axis',(0.,-1.,0.));
#1396=DIRECTION('ref_axis',(-0.985915493002087,0.,0.16724425448562));
#1397=DIRECTION('',(0.,-1.,0.));
#1398=DIRECTION('center_axis',(0.,0.,1.));
#1399=DIRECTION('ref_axis',(-1.,0.,0.));
#1400=DIRECTION('',(-1.,0.,0.));
#1401=DIRECTION('',(0.,-1.,0.));
#1402=DIRECTION('center_axis',(0.,-1.,0.));
#1403=DIRECTION('ref_axis',(-9.57088832446075E-16,0.,1.));
#1404=DIRECTION('center_axis',(0.,-1.,0.));
#1405=DIRECTION('ref_axis',(-9.57088832446075E-16,0.,1.));
#1406=DIRECTION('center_axis',(0.,-1.,0.));
#1407=DIRECTION('ref_axis',(1.,0.,0.));
#1408=DIRECTION('',(1.,0.,0.));
#1409=DIRECTION('',(-1.,0.,0.));
#1410=DIRECTION('',(0.,0.,-1.));
#1411=DIRECTION('center_axis',(0.,0.,1.));
#1412=DIRECTION('ref_axis',(1.,0.,0.));
#1413=DIRECTION('',(1.,0.,0.));
#1414=DIRECTION('',(2.61228946970625E-17,1.,0.));
#1415=DIRECTION('center_axis',(1.,0.,0.));
#1416=DIRECTION('ref_axis',(0.,1.,0.));
#1417=DIRECTION('',(2.61228946970625E-17,1.,0.));
#1418=DIRECTION('',(0.,0.,1.));
#1419=DIRECTION('',(0.,1.,0.));
#1420=DIRECTION('',(0.,0.,1.));
#1421=DIRECTION('center_axis',(0.,0.,1.));
#1422=DIRECTION('ref_axis',(1.,0.,0.));
#1423=DIRECTION('',(1.,0.,0.));
#1424=DIRECTION('',(-2.61228946970625E-17,-1.,0.));
#1425=DIRECTION('center_axis',(0.,0.,1.));
#1426=DIRECTION('ref_axis',(1.,0.,0.));
#1427=DIRECTION('',(1.,0.,0.));
#1428=DIRECTION('',(-1.,0.,0.));
#1429=DIRECTION('',(0.,-1.,0.));
#1430=DIRECTION('',(-2.61228946970625E-17,-1.,0.));
#1431=DIRECTION('center_axis',(0.,0.,1.));
#1432=DIRECTION('ref_axis',(1.,0.,0.));
#1433=DIRECTION('',(2.61228946970625E-17,1.,0.));
#1434=DIRECTION('',(1.,0.,0.));
#1435=DIRECTION('center_axis',(0.,-1.,0.));
#1436=DIRECTION('ref_axis',(1.,0.,0.));
#1437=DIRECTION('',(0.,0.,-1.));
#1438=DIRECTION('center_axis',(-1.,2.61228946970625E-17,0.));
#1439=DIRECTION('ref_axis',(-2.61228946970625E-17,-1.,0.));
#1440=DIRECTION('',(0.,0.,1.));
#1441=DIRECTION('center_axis',(-1.,0.,0.));
#1442=DIRECTION('ref_axis',(0.,-1.,0.));
#1443=DIRECTION('',(0.,1.,0.));
#1444=DIRECTION('',(0.,0.,1.));
#1445=DIRECTION('',(0.,0.,1.));
#1446=DIRECTION('center_axis',(0.,1.,0.));
#1447=DIRECTION('ref_axis',(-1.,0.,0.));
#1448=DIRECTION('',(1.,0.,0.));
#1449=DIRECTION('center_axis',(0.,-1.,0.));
#1450=DIRECTION('ref_axis',(1.,0.,0.));
#1451=DIRECTION('',(1.,0.,0.));
#1452=DIRECTION('center_axis',(0.,0.,1.));
#1453=DIRECTION('ref_axis',(1.,0.,0.));
#1454=CARTESIAN_POINT('',(0.,0.,0.));
#1455=CARTESIAN_POINT('Origin',(11.8000001117587,41.7500002868474,22.));
#1456=CARTESIAN_POINT('',(13.,40.0266314150672,22.));
#1457=CARTESIAN_POINT('',(13.,43.0000006705523,22.));
#1458=CARTESIAN_POINT('',(13.,42.9000003352761,22.));
#1459=CARTESIAN_POINT('',(13.9000001117587,41.7500002868474,22.));
#1460=CARTESIAN_POINT('Origin',(11.8000001117587,41.7500002868474,22.));
#1461=CARTESIAN_POINT('',(10.1125466929238,43.0000006705523,22.));
#1462=CARTESIAN_POINT('Origin',(11.8000001117587,41.7500002868474,22.));
#1463=CARTESIAN_POINT('',(-4.60000014901161,43.0000006705523,22.));
#1464=CARTESIAN_POINT('Origin',(11.8000001117587,41.7500002868474,28.));
#1465=CARTESIAN_POINT('',(13.9000001117587,41.7500002868474,28.));
#1466=CARTESIAN_POINT('Origin',(11.8000001117587,41.7500002868474,28.));
#1467=CARTESIAN_POINT('',(13.9000001117587,41.7500002868474,28.));
#1468=CARTESIAN_POINT('Origin',(11.8000001117587,41.7500002868474,22.));
#1469=CARTESIAN_POINT('Origin',(-16.7999998480082,41.7999985069036,22.));
#1470=CARTESIAN_POINT('',(-15.0766325606203,43.0000006705523,22.));
#1471=CARTESIAN_POINT('',(-18.,43.0000006705523,22.));
#1472=CARTESIAN_POINT('',(-17.9000001490116,43.0000006705523,22.));
#1473=CARTESIAN_POINT('',(-18.,40.0766298187757,22.));
#1474=CARTESIAN_POINT('Origin',(-16.7999998480082,41.7999985069036,22.));
#1475=CARTESIAN_POINT('',(-18.,0.400000335276127,22.));
#1476=CARTESIAN_POINT('Origin',(-16.7999998480082,41.7999985069036,28.));
#1477=CARTESIAN_POINT('',(-14.6999998480082,41.7999985069036,28.));
#1478=CARTESIAN_POINT('Origin',(-16.7999998480082,41.7999985069036,28.));
#1479=CARTESIAN_POINT('',(-14.6999998480082,41.7999985069036,22.));
#1480=CARTESIAN_POINT('',(-14.6999998480082,41.7999985069036,28.));
#1481=CARTESIAN_POINT('Origin',(-16.7999998480082,41.7999985069036,22.));
#1482=CARTESIAN_POINT('Origin',(-16.7999998480082,41.7999985069036,22.));
#1483=CARTESIAN_POINT('Origin',(11.7500001750886,-36.7500005476177,22.));
#1484=CARTESIAN_POINT('',(10.0625465078942,-38.0000005960464,22.));
#1485=CARTESIAN_POINT('',(13.,-37.9999993294478,22.));
#1486=CARTESIAN_POINT('',(11.9,-38.0000005960464,22.));
#1487=CARTESIAN_POINT('',(13.8500001750886,-36.7500005476177,22.));
#1488=CARTESIAN_POINT('Origin',(11.7500001750886,-36.7500005476177,22.));
#1489=CARTESIAN_POINT('',(13.,-35.0625467148502,22.));
#1490=CARTESIAN_POINT('Origin',(11.7500001750886,-36.7500005476177,22.));
#1491=CARTESIAN_POINT('',(13.,4.60000033527612,22.));
#1492=CARTESIAN_POINT('Origin',(11.7500001750886,-36.7500005476177,28.));
#1493=CARTESIAN_POINT('',(13.8500001750886,-36.7500005476177,28.));
#1494=CARTESIAN_POINT('Origin',(11.7500001750886,-36.7500005476177,28.));
#1495=CARTESIAN_POINT('',(13.8500001750886,-36.7500005476177,28.));
#1496=CARTESIAN_POINT('Origin',(11.7500001750886,-36.7500005476177,22.));
#1497=CARTESIAN_POINT('Origin',(-16.8,-36.7999996647239,22.));
#1498=CARTESIAN_POINT('',(-18.,-35.0766308707625,22.));
#1499=CARTESIAN_POINT('',(-18.,-37.9999993294478,22.));
#1500=CARTESIAN_POINT('',(-18.,-37.8999996647239,22.));
#1501=CARTESIAN_POINT('',(-15.0766318545288,-38.0000005960464,22.));
#1502=CARTESIAN_POINT('Origin',(-16.8,-36.7999996647239,22.));
#1503=CARTESIAN_POINT('',(-1.4,-38.0000005960464,22.));
#1504=CARTESIAN_POINT('Origin',(-16.8,-36.7999996647239,28.));
#1505=CARTESIAN_POINT('',(-14.7,-36.7999996647239,28.));
#1506=CARTESIAN_POINT('Origin',(-16.8,-36.7999996647239,28.));
#1507=CARTESIAN_POINT('',(-14.7,-36.7999996647239,22.));
#1508=CARTESIAN_POINT('',(-14.7,-36.7999996647239,28.));
#1509=CARTESIAN_POINT('Origin',(-16.8,-36.7999996647239,22.));
#1510=CARTESIAN_POINT('Origin',(-16.8,-36.7999996647239,22.));
#1511=CARTESIAN_POINT('Origin',(8.6,38.6000006705523,28.));
#1512=CARTESIAN_POINT('',(8.6,38.6000006705523,28.));
#1513=CARTESIAN_POINT('',(8.6,43.0000006705523,28.));
#1514=CARTESIAN_POINT('',(8.6,38.6000006705523,28.));
#1515=CARTESIAN_POINT('',(8.6,43.0000006705523,22.));
#1516=CARTESIAN_POINT('',(8.6,43.0000006705523,14.));
#1517=CARTESIAN_POINT('',(8.6,38.6000006705523,22.));
#1518=CARTESIAN_POINT('',(8.6,38.6000006705523,22.));
#1519=CARTESIAN_POINT('',(8.6,38.6000006705523,28.));
#1520=CARTESIAN_POINT('Origin',(13.,38.6000006705523,28.));
#1521=CARTESIAN_POINT('',(13.,38.6000006705523,28.));
#1522=CARTESIAN_POINT('',(13.,38.6000006705523,28.));
#1523=CARTESIAN_POINT('',(13.,38.6000006705523,22.));
#1524=CARTESIAN_POINT('',(13.,38.6000006705523,22.));
#1525=CARTESIAN_POINT('',(13.,38.6000006705522,15.));
#1526=CARTESIAN_POINT('Origin',(10.8,40.8000006705523,22.));
#1527=CARTESIAN_POINT('',(13.,42.9000003352761,22.));
#1528=CARTESIAN_POINT('',(-4.60000014901161,43.0000006705523,22.));
#1529=CARTESIAN_POINT('Origin',(-13.6,-33.5999993294478,28.));
#1530=CARTESIAN_POINT('',(-13.6,-33.5999993294478,28.));
#1531=CARTESIAN_POINT('',(-13.6,-37.9999993294478,28.));
#1532=CARTESIAN_POINT('',(-13.6,-33.5999993294478,28.));
#1533=CARTESIAN_POINT('',(-13.6,-37.9999993294478,22.));
#1534=CARTESIAN_POINT('',(-13.6,-38.0000005960464,15.));
#1535=CARTESIAN_POINT('',(-13.6,-33.5999993294478,22.));
#1536=CARTESIAN_POINT('',(-13.6,-33.5999993294478,22.));
#1537=CARTESIAN_POINT('',(-13.6,-33.5999993294478,28.));
#1538=CARTESIAN_POINT('Origin',(-18.,-33.5999993294478,28.));
#1539=CARTESIAN_POINT('',(-18.,-33.5999993294478,28.));
#1540=CARTESIAN_POINT('',(-18.,-33.5999993294478,28.));
#1541=CARTESIAN_POINT('',(-18.,-33.5999993294478,22.));
#1542=CARTESIAN_POINT('',(-18.,-33.5999993294478,22.));
#1543=CARTESIAN_POINT('',(-18.,-33.5999993294478,15.));
#1544=CARTESIAN_POINT('Origin',(-15.8,-35.7999993294478,22.));
#1545=CARTESIAN_POINT('',(-18.,-37.8999996647239,22.));
#1546=CARTESIAN_POINT('',(-1.4,-38.0000005960464,22.));
#1547=CARTESIAN_POINT('Origin',(-18.,-40.,2.));
#1548=CARTESIAN_POINT('',(-18.,-38.0000005960464,18.));
#1549=CARTESIAN_POINT('',(-18.,-38.0000005960464,2.));
#1550=CARTESIAN_POINT('',(-18.,-40.0000005960464,18.));
#1551=CARTESIAN_POINT('',(-18.,-39.5000002980232,18.));
#1552=CARTESIAN_POINT('',(-18.,-40.,2.));
#1553=CARTESIAN_POINT('',(-18.,-40.,2.));
#1554=CARTESIAN_POINT('',(-18.,43.0000006705523,2.));
#1555=CARTESIAN_POINT('',(-18.,-18.75,2.));
#1556=CARTESIAN_POINT('',(-18.,43.0000006705523,13.));
#1557=CARTESIAN_POINT('',(-18.,43.0000006705523,1.));
#1558=CARTESIAN_POINT('',(-18.,-22.0000003278255,13.));
#1559=CARTESIAN_POINT('',(-18.,-14.2499999143183,13.));
#1560=CARTESIAN_POINT('',(-18.,-22.0000003278255,14.));
#1561=CARTESIAN_POINT('',(-18.,-22.0000003278255,2.));
#1562=CARTESIAN_POINT('',(-18.,43.0000006705523,14.));
#1563=CARTESIAN_POINT('',(-18.,-14.2499999143183,14.));
#1564=CARTESIAN_POINT('',(-18.,43.0000006705523,1.));
#1565=CARTESIAN_POINT('',(-18.,38.6000006705523,22.));
#1566=CARTESIAN_POINT('',(-18.,0.400000335276127,22.));
#1567=CARTESIAN_POINT('',(-18.,38.6000006705523,28.));
#1568=CARTESIAN_POINT('',(-18.,38.6000006705522,15.));
#1569=CARTESIAN_POINT('',(-18.,45.,28.));
#1570=CARTESIAN_POINT('Origin',(-13.6,43.0000006705523,28.));
#1571=CARTESIAN_POINT('',(-13.6,43.0000006705523,28.));
#1572=CARTESIAN_POINT('',(-13.6,38.6000006705523,28.));
#1573=CARTESIAN_POINT('',(-13.6,43.0000006705523,28.));
#1574=CARTESIAN_POINT('',(-13.6,38.6000006705523,22.));
#1575=CARTESIAN_POINT('',(-13.6,38.6000006705523,28.));
#1576=CARTESIAN_POINT('',(-13.6,43.0000006705523,22.));
#1577=CARTESIAN_POINT('',(-13.6,43.0000006705523,22.));
#1578=CARTESIAN_POINT('',(-13.6,43.0000006705523,14.));
#1579=CARTESIAN_POINT('Origin',(-13.6,38.6000006705523,28.));
#1580=CARTESIAN_POINT('',(-13.6,38.6000006705523,28.));
#1581=CARTESIAN_POINT('',(-13.6,38.6000006705523,22.));
#1582=CARTESIAN_POINT('Origin',(-15.8,40.8000006705523,22.));
#1583=CARTESIAN_POINT('',(-17.9000001490116,43.0000006705523,22.));
#1584=CARTESIAN_POINT('Origin',(-20.0000002980232,43.0000006705523,0.));
#1585=CARTESIAN_POINT('',(-20.0000002980232,43.0000006705523,28.));
#1586=CARTESIAN_POINT('',(-6.66621218151576,43.0000006705523,14.));
#1587=CARTESIAN_POINT('',(-11.2500001490116,43.0000006705523,14.));
#1588=CARTESIAN_POINT('',(-7.19999984354191,43.,15.0999930387788));
#1589=CARTESIAN_POINT('Origin',(-5.79971087112584,43.0000006705523,15.0999930387792));
#1590=CARTESIAN_POINT('',(-7.19999984353781,43.,16.317486477393));
#1591=CARTESIAN_POINT('',(-7.19999984356531,43.0000006705523,8.15874323867491));
#1592=CARTESIAN_POINT('',(-5.7999998703599,43.,17.4999996133149));
#1593=CARTESIAN_POINT('Origin',(-5.7999998703599,43.0000006705523,16.079999640584));
#1594=CARTESIAN_POINT('',(0.999999977648258,43.,17.4999996133149));
#1595=CARTESIAN_POINT('',(-9.50000016018748,43.0000006705523,17.4999996133149));
#1596=CARTESIAN_POINT('',(2.29999995306134,43.,16.3091267577636));
#1597=CARTESIAN_POINT('Origin',(0.999999977648259,43.0000006705523,16.1949996380135));
#1598=CARTESIAN_POINT('',(2.29999995306134,43.,14.9360444113615));
#1599=CARTESIAN_POINT('',(2.29999995306134,43.0000006705523,7.46802220568076));
#1600=CARTESIAN_POINT('',(1.87153438345339,43.0000006705523,14.));
#1601=CARTESIAN_POINT('Origin',(1.06330561919658,43.0000006705523,14.9360444113615));
#1602=CARTESIAN_POINT('',(13.,43.0000006705523,14.));
#1603=CARTESIAN_POINT('',(-11.2500001490116,43.0000006705523,14.));
#1604=CARTESIAN_POINT('',(13.,43.0000006705523,1.));
#1605=CARTESIAN_POINT('Origin',(8.6,-37.9999993294478,28.));
#1606=CARTESIAN_POINT('',(8.6,-37.9999993294478,28.));
#1607=CARTESIAN_POINT('',(8.6,-33.5999993294478,28.));
#1608=CARTESIAN_POINT('',(8.6,-37.9999993294478,28.));
#1609=CARTESIAN_POINT('',(8.6,-33.5999993294478,22.));
#1610=CARTESIAN_POINT('',(8.6,-33.5999993294478,28.));
#1611=CARTESIAN_POINT('',(8.6,-37.9999993294478,22.));
#1612=CARTESIAN_POINT('',(8.6,-37.9999993294478,22.));
#1613=CARTESIAN_POINT('',(8.6,-38.0000005960464,15.));
#1614=CARTESIAN_POINT('Origin',(8.6,-33.5999993294478,28.));
#1615=CARTESIAN_POINT('',(13.,-33.5999993294478,28.));
#1616=CARTESIAN_POINT('',(8.6,-33.5999993294478,28.));
#1617=CARTESIAN_POINT('',(13.,-33.5999993294478,22.));
#1618=CARTESIAN_POINT('',(13.,-33.5999993294478,15.));
#1619=CARTESIAN_POINT('',(8.6,-33.5999993294478,22.));
#1620=CARTESIAN_POINT('Origin',(10.8,-35.7999993294478,22.));
#1621=CARTESIAN_POINT('',(11.9,-38.0000005960464,22.));
#1622=CARTESIAN_POINT('',(13.,4.60000033527612,22.));
#1623=CARTESIAN_POINT('Origin',(8.50000012665987,-40.,20.0000002980232));
#1624=CARTESIAN_POINT('',(8.50000012665987,-40.,20.0000002980232));
#1625=CARTESIAN_POINT('',(-13.5000002011657,-40.,20.0000002980232));
#1626=CARTESIAN_POINT('',(-5.74999993667006,-40.,20.0000002980232));
#1627=CARTESIAN_POINT('',(8.50000012665987,-38.,20.0000002980232));
#1628=CARTESIAN_POINT('',(8.50000012665987,-40.,20.0000002980232));
#1629=CARTESIAN_POINT('',(-13.5000002011657,-38.,20.0000002980232));
#1630=CARTESIAN_POINT('',(10.7500000633299,-38.0000005960464,20.0000002980232));
#1631=CARTESIAN_POINT('',(-13.5000002011657,-40.,20.0000002980232));
#1632=CARTESIAN_POINT('Origin',(8.50000012665987,-40.,25.000000372529));
#1633=CARTESIAN_POINT('',(8.50000012665987,-40.,25.000000372529));
#1634=CARTESIAN_POINT('',(8.50000012665987,-40.,12.5000001862645));
#1635=CARTESIAN_POINT('',(8.50000012665987,-38.,25.000000372529));
#1636=CARTESIAN_POINT('',(8.50000012665987,-40.,25.000000372529));
#1637=CARTESIAN_POINT('',(8.50000012665987,-38.0000005960464,13.5000001862645));
#1638=CARTESIAN_POINT('Origin',(-13.5000002011657,-40.,25.000000372529));
#1639=CARTESIAN_POINT('',(-13.5000002011657,-40.,25.000000372529));
#1640=CARTESIAN_POINT('',(-16.7500001005828,-40.,25.000000372529));
#1641=CARTESIAN_POINT('',(-13.5000002011657,-38.,25.000000372529));
#1642=CARTESIAN_POINT('',(-13.5000002011657,-40.,25.000000372529));
#1643=CARTESIAN_POINT('',(-0.25000010058284,-38.0000005960464,25.000000372529));
#1644=CARTESIAN_POINT('Origin',(-13.5000002011657,-40.,20.0000002980232));
#1645=CARTESIAN_POINT('',(-13.5000002011657,-40.,10.0000001490116));
#1646=CARTESIAN_POINT('',(-13.5000002011657,-38.0000005960464,11.0000001490116));
#1647=CARTESIAN_POINT('Origin',(-2.5,-39.0000005960464,18.));
#1648=CARTESIAN_POINT('',(13.,-40.0000005960464,18.));
#1649=CARTESIAN_POINT('',(13.,-38.0000005960464,18.));
#1650=CARTESIAN_POINT('',(13.,2.99999970197678,18.));
#1651=CARTESIAN_POINT('',(-10.25,-40.0000005960464,18.));
#1652=CARTESIAN_POINT('',(5.25,-38.0000005960464,18.));
#1653=CARTESIAN_POINT('Origin',(13.,-38.0000005960464,2.));
#1654=CARTESIAN_POINT('',(15.0000002235174,-38.0000005960464,28.));
#1655=CARTESIAN_POINT('',(13.,-38.0000005960464,2.));
#1656=CARTESIAN_POINT('Origin',(5.34205714947445,45.,6.99435122197374));
#1657=CARTESIAN_POINT('',(6.21705714947445,45.,6.99435122197374));
#1658=CARTESIAN_POINT('Origin',(5.34205714947445,45.,6.99435122197374));
#1659=CARTESIAN_POINT('',(6.21705714947445,43.,6.99435122197374));
#1660=CARTESIAN_POINT('',(6.21705714947445,45.,6.99435122197374));
#1661=CARTESIAN_POINT('Origin',(5.34205714947445,43.0000006705523,6.99435122197374));
#1662=CARTESIAN_POINT('Origin',(-9.66758389084183,45.,6.99820559045432));
#1663=CARTESIAN_POINT('',(-8.79258389084183,45.,6.99820559045432));
#1664=CARTESIAN_POINT('Origin',(-9.66758389084183,45.,6.99820559045432));
#1665=CARTESIAN_POINT('',(-8.79258389084183,43.,6.99820559045432));
#1666=CARTESIAN_POINT('',(-8.79258389084183,45.,6.99820559045432));
#1667=CARTESIAN_POINT('Origin',(-9.66758389084183,43.0000006705523,6.99820559045432));
#1668=CARTESIAN_POINT('Origin',(-2.44999994524029,43.,15.5999996513128));
#1669=CARTESIAN_POINT('',(-11.2500001490116,43.0000006705523,14.));
#1670=CARTESIAN_POINT('',(1.1033845476223,43.,13.6999996893108));
#1671=CARTESIAN_POINT('Origin',(1.06330561919658,43.,14.9360444113615));
#1672=CARTESIAN_POINT('',(-5.82848286644048,43.,13.6999996893108));
#1673=CARTESIAN_POINT('',(1.1033845476223,43.,13.6999996893108));
#1674=CARTESIAN_POINT('Origin',(-5.79971087112584,43.,15.0999930387792));
#1675=CARTESIAN_POINT('Origin',(2.29999995306134,45.,14.9360444113615));
#1676=CARTESIAN_POINT('',(2.29999995306134,45.,14.9360444113615));
#1677=CARTESIAN_POINT('',(2.29999995306134,45.,16.3091267577636));
#1678=CARTESIAN_POINT('',(2.29999995306134,45.,7.46802220568075));
#1679=CARTESIAN_POINT('',(2.29999995306134,45.,14.9360444113615));
#1680=CARTESIAN_POINT('',(2.29999995306134,45.,16.3091267577636));
#1681=CARTESIAN_POINT('Origin',(1.06330561919658,45.,14.9360444113615));
#1682=CARTESIAN_POINT('',(1.1033845476223,45.,13.6999996893108));
#1683=CARTESIAN_POINT('Origin',(1.06330561919658,45.,14.9360444113615));
#1684=CARTESIAN_POINT('',(1.1033845476223,45.,13.6999996893108));
#1685=CARTESIAN_POINT('Origin',(-5.82848286644048,45.,13.6999996893108));
#1686=CARTESIAN_POINT('',(-5.82848286644048,45.,13.6999996893108));
#1687=CARTESIAN_POINT('',(4.58575856677976,45.,13.6999996893108));
#1688=CARTESIAN_POINT('',(-5.82848286644048,45.,13.6999996893108));
#1689=CARTESIAN_POINT('Origin',(-5.79971087112584,45.,15.0999930387792));
#1690=CARTESIAN_POINT('',(-7.19999984354191,45.,15.0999930387788));
#1691=CARTESIAN_POINT('Origin',(-5.79971087112584,45.,15.0999930387792));
#1692=CARTESIAN_POINT('',(-7.19999984354191,45.,15.0999930387788));
#1693=CARTESIAN_POINT('Origin',(-7.19999984353781,45.,16.317486477393));
#1694=CARTESIAN_POINT('',(-7.19999984353781,45.,16.317486477393));
#1695=CARTESIAN_POINT('',(-7.19999984356531,45.,8.15874323873391));
#1696=CARTESIAN_POINT('',(-7.19999984353781,45.,16.317486477393));
#1697=CARTESIAN_POINT('Origin',(-5.7999998703599,45.,16.079999640584));
#1698=CARTESIAN_POINT('',(-5.7999998703599,45.,17.4999996133149));
#1699=CARTESIAN_POINT('Origin',(-5.7999998703599,45.,16.079999640584));
#1700=CARTESIAN_POINT('',(-5.7999998703599,45.,17.4999996133149));
#1701=CARTESIAN_POINT('Origin',(0.999999977648258,45.,17.4999996133149));
#1702=CARTESIAN_POINT('',(0.999999977648258,45.,17.4999996133149));
#1703=CARTESIAN_POINT('',(7.99999998882413,45.,17.4999996133149));
#1704=CARTESIAN_POINT('',(0.999999977648258,45.,17.4999996133149));
#1705=CARTESIAN_POINT('Origin',(0.999999977648259,45.,16.1949996380135));
#1706=CARTESIAN_POINT('Origin',(0.999999977648259,45.,16.1949996380135));
#1707=CARTESIAN_POINT('Origin',(-20.0000002980232,43.0000006705523,0.));
#1708=CARTESIAN_POINT('',(13.,43.0000006705523,13.));
#1709=CARTESIAN_POINT('',(-11.2500001490116,43.0000006705523,13.));
#1710=CARTESIAN_POINT('',(13.,43.0000006705523,2.));
#1711=CARTESIAN_POINT('',(-11.2500001490116,43.0000006705523,2.));
#1712=CARTESIAN_POINT('',(13.,43.0000006705523,1.));
#1713=CARTESIAN_POINT('Origin',(-2.5,2.5,2.));
#1714=CARTESIAN_POINT('',(13.,-40.,2.));
#1715=CARTESIAN_POINT('',(-20.,-40.,2.));
#1716=CARTESIAN_POINT('',(13.,23.75,2.));
#1717=CARTESIAN_POINT('Origin',(15.,-40.,0.));
#1718=CARTESIAN_POINT('',(15.,-40.,28.));
#1719=CARTESIAN_POINT('',(15.,45.,28.));
#1720=CARTESIAN_POINT('',(15.,45.,28.));
#1721=CARTESIAN_POINT('',(15.,-40.,0.));
#1722=CARTESIAN_POINT('',(15.,-40.,0.));
#1723=CARTESIAN_POINT('',(15.,45.,0.));
#1724=CARTESIAN_POINT('',(15.,-40.,0.));
#1725=CARTESIAN_POINT('',(15.,45.,0.));
#1726=CARTESIAN_POINT('Origin',(-2.5,11.5000001713634,14.));
#1727=CARTESIAN_POINT('',(13.,-22.0000003278255,14.));
#1728=CARTESIAN_POINT('',(15.0000002235174,-22.0000003278255,14.));
#1729=CARTESIAN_POINT('',(13.,28.2500000856817,14.));
#1730=CARTESIAN_POINT('Origin',(14.,2.5,28.));
#1731=CARTESIAN_POINT('',(-20.,-40.,28.));
#1732=CARTESIAN_POINT('',(-18.,-40.,28.));
#1733=CARTESIAN_POINT('',(-20.,45.,28.));
#1734=CARTESIAN_POINT('',(15.,45.,28.));
#1735=CARTESIAN_POINT('',(-20.,-40.,28.));
#1736=CARTESIAN_POINT('',(13.,-40.,28.));
#1737=CARTESIAN_POINT('Origin',(-2.5,11.5000001713634,13.));
#1738=CARTESIAN_POINT('',(13.,-22.0000003278255,13.));
#1739=CARTESIAN_POINT('',(13.,28.2500000856817,13.));
#1740=CARTESIAN_POINT('',(-10.25,-22.0000003278255,13.));
#1741=CARTESIAN_POINT('Origin',(-18.,-22.0000003278255,2.));
#1742=CARTESIAN_POINT('',(13.,-22.0000003278255,2.));
#1743=CARTESIAN_POINT('Origin',(13.,45.,2.));
#1744=CARTESIAN_POINT('',(13.,-40.,2.));
#1745=CARTESIAN_POINT('Origin',(-20.,45.,0.));
#1746=CARTESIAN_POINT('',(-20.,-40.,0.));
#1747=CARTESIAN_POINT('',(-20.,45.,0.));
#1748=CARTESIAN_POINT('',(-20.,-40.,0.));
#1749=CARTESIAN_POINT('',(-20.,-40.,0.));
#1750=CARTESIAN_POINT('',(-20.,45.,0.));
#1751=CARTESIAN_POINT('Origin',(15.,45.,0.));
#1752=CARTESIAN_POINT('',(-20.,45.,0.));
#1753=CARTESIAN_POINT('Origin',(-20.,-40.,0.));
#1754=CARTESIAN_POINT('',(-20.,-40.,0.));
#1755=CARTESIAN_POINT('Origin',(-2.5,2.5,0.));
#1756=UNCERTAINTY_MEASURE_WITH_UNIT(LENGTH_MEASURE(0.01),#1760,
'DISTANCE_ACCURACY_VALUE',
'Maximum model space distance between geometric entities at asserted c
onnectivities');
#1757=UNCERTAINTY_MEASURE_WITH_UNIT(LENGTH_MEASURE(0.01),#1760,
'DISTANCE_ACCURACY_VALUE',
'Maximum model space distance between geometric entities at asserted c
onnectivities');
#1758=(
GEOMETRIC_REPRESENTATION_CONTEXT(3)
GLOBAL_UNCERTAINTY_ASSIGNED_CONTEXT((#1756))
GLOBAL_UNIT_ASSIGNED_CONTEXT((#1760,#1762,#1763))
REPRESENTATION_CONTEXT('','3D')
);
#1759=(
GEOMETRIC_REPRESENTATION_CONTEXT(3)
GLOBAL_UNCERTAINTY_ASSIGNED_CONTEXT((#1757))
GLOBAL_UNIT_ASSIGNED_CONTEXT((#1760,#1762,#1763))
REPRESENTATION_CONTEXT('','3D')
);
#1760=(
LENGTH_UNIT()
NAMED_UNIT(*)
SI_UNIT(.MILLI.,.METRE.)
);
#1761=(
LENGTH_UNIT()
NAMED_UNIT(*)
SI_UNIT($,.METRE.)
);
#1762=(
NAMED_UNIT(*)
PLANE_ANGLE_UNIT()
SI_UNIT($,.RADIAN.)
);
#1763=(
NAMED_UNIT(*)
SI_UNIT($,.STERADIAN.)
SOLID_ANGLE_UNIT()
);
#1764=SHAPE_DEFINITION_REPRESENTATION(#1765,#1766);
#1765=PRODUCT_DEFINITION_SHAPE('',$,#1768);
#1766=SHAPE_REPRESENTATION('',(#1086),#1758);
#1767=PRODUCT_DEFINITION_CONTEXT('part definition',#1772,'design');
#1768=PRODUCT_DEFINITION('2026-09-25-21-42-21-142','finalEnclosureBody',
#1769,#1767);
#1769=PRODUCT_DEFINITION_FORMATION('',$,#1774);
#1770=PRODUCT_RELATED_PRODUCT_CATEGORY('finalEnclosureBody',
'finalEnclosureBody',(#1774));
#1771=APPLICATION_PROTOCOL_DEFINITION('international standard',
'automotive_design',2009,#1772);
#1772=APPLICATION_CONTEXT(
'Core Data for Automotive Mechanical Design Process');
#1773=PRODUCT_CONTEXT('part definition',#1772,'mechanical');
#1774=PRODUCT('2026-09-25-21-42-21-142','finalEnclosureBody',$,(#1773));
#1775=PRESENTATION_STYLE_ASSIGNMENT((#1776));
#1776=SURFACE_STYLE_USAGE(.BOTH.,#1777);
#1777=SURFACE_SIDE_STYLE('',(#1778));
#1778=SURFACE_STYLE_FILL_AREA(#1779);
#1779=FILL_AREA_STYLE('Steel - Satin',(#1780));
#1780=FILL_AREA_STYLE_COLOUR('Steel - Satin',#1781);
#1781=COLOUR_RGB('Steel - Satin',0.627450980392157,0.627450980392157,0.627450980392157);
ENDSEC;
END-ISO-10303-21;
