ISO-10303-21;
HEADER;
/* Generated by software containing ST-Developer
 * from STEP Tools, Inc. (www.steptools.com) 
 */

FILE_DESCRIPTION(
/* description */ (''),
/* implementation_level */ '2;1');

FILE_NAME(
/* name */ 'flysky2espnow_lid.step',
/* time_stamp */ '2026-09-26T19:15:24+05:30',
/* author */ (''),
/* organization */ (''),
/* preprocessor_version */ 'ST-DEVELOPER v20.2',
/* originating_system */ 'Autodesk Translation Framework v15.15.0.0',
/* authorisation */ '');

FILE_SCHEMA (('AUTOMOTIVE_DESIGN { 1 0 10303 214 3 1 1 }'));
ENDSEC;

DATA;
#10=MECHANICAL_DESIGN_GEOMETRIC_PRESENTATION_REPRESENTATION('',(#13),#694);
#11=SHAPE_REPRESENTATION_RELATIONSHIP('SRR','None',#701,#12);
#12=ADVANCED_BREP_SHAPE_REPRESENTATION('',(#14),#693);
#13=STYLED_ITEM('',(#710),#14);
#14=MANIFOLD_SOLID_BREP('Body1',#410);
#15=FACE_BOUND('',#90,.T.);
#16=FACE_BOUND('',#91,.T.);
#17=FACE_BOUND('',#92,.T.);
#18=FACE_BOUND('',#93,.T.);
#19=FACE_BOUND('',#94,.T.);
#20=FACE_BOUND('',#95,.T.);
#21=FACE_BOUND('',#96,.T.);
#22=FACE_BOUND('',#97,.T.);
#23=FACE_BOUND('',#98,.T.);
#24=FACE_BOUND('',#99,.T.);
#25=FACE_BOUND('',#101,.T.);
#26=FACE_BOUND('',#102,.T.);
#27=FACE_BOUND('',#103,.T.);
#28=FACE_BOUND('',#104,.T.);
#29=FACE_BOUND('',#105,.T.);
#30=FACE_BOUND('',#106,.T.);
#31=PLANE('',#442);
#32=PLANE('',#446);
#33=PLANE('',#450);
#34=PLANE('',#454);
#35=PLANE('',#455);
#36=PLANE('',#456);
#37=PLANE('',#457);
#38=PLANE('',#458);
#39=PLANE('',#459);
#40=PLANE('',#460);
#41=PLANE('',#461);
#42=PLANE('',#462);
#43=PLANE('',#463);
#44=PLANE('',#464);
#45=FACE_OUTER_BOUND('',#68,.T.);
#46=FACE_OUTER_BOUND('',#69,.T.);
#47=FACE_OUTER_BOUND('',#70,.T.);
#48=FACE_OUTER_BOUND('',#71,.T.);
#49=FACE_OUTER_BOUND('',#72,.T.);
#50=FACE_OUTER_BOUND('',#73,.T.);
#51=FACE_OUTER_BOUND('',#74,.T.);
#52=FACE_OUTER_BOUND('',#75,.T.);
#53=FACE_OUTER_BOUND('',#76,.T.);
#54=FACE_OUTER_BOUND('',#77,.T.);
#55=FACE_OUTER_BOUND('',#78,.T.);
#56=FACE_OUTER_BOUND('',#79,.T.);
#57=FACE_OUTER_BOUND('',#80,.T.);
#58=FACE_OUTER_BOUND('',#81,.T.);
#59=FACE_OUTER_BOUND('',#82,.T.);
#60=FACE_OUTER_BOUND('',#83,.T.);
#61=FACE_OUTER_BOUND('',#84,.T.);
#62=FACE_OUTER_BOUND('',#85,.T.);
#63=FACE_OUTER_BOUND('',#86,.T.);
#64=FACE_OUTER_BOUND('',#87,.T.);
#65=FACE_OUTER_BOUND('',#88,.T.);
#66=FACE_OUTER_BOUND('',#89,.T.);
#67=FACE_OUTER_BOUND('',#100,.T.);
#68=EDGE_LOOP('',(#276,#277,#278,#279));
#69=EDGE_LOOP('',(#280,#281,#282,#283));
#70=EDGE_LOOP('',(#284,#285,#286,#287));
#71=EDGE_LOOP('',(#288,#289,#290,#291));
#72=EDGE_LOOP('',(#292,#293,#294,#295));
#73=EDGE_LOOP('',(#296,#297,#298,#299));
#74=EDGE_LOOP('',(#300));
#75=EDGE_LOOP('',(#301,#302,#303,#304));
#76=EDGE_LOOP('',(#305));
#77=EDGE_LOOP('',(#306,#307,#308,#309));
#78=EDGE_LOOP('',(#310));
#79=EDGE_LOOP('',(#311,#312,#313,#314));
#80=EDGE_LOOP('',(#315));
#81=EDGE_LOOP('',(#316,#317,#318,#319));
#82=EDGE_LOOP('',(#320,#321,#322,#323));
#83=EDGE_LOOP('',(#324,#325,#326,#327));
#84=EDGE_LOOP('',(#328,#329,#330,#331));
#85=EDGE_LOOP('',(#332,#333,#334,#335));
#86=EDGE_LOOP('',(#336,#337,#338,#339));
#87=EDGE_LOOP('',(#340,#341,#342,#343));
#88=EDGE_LOOP('',(#344,#345,#346,#347));
#89=EDGE_LOOP('',(#348,#349,#350,#351));
#90=EDGE_LOOP('',(#352));
#91=EDGE_LOOP('',(#353));
#92=EDGE_LOOP('',(#354));
#93=EDGE_LOOP('',(#355));
#94=EDGE_LOOP('',(#356));
#95=EDGE_LOOP('',(#357));
#96=EDGE_LOOP('',(#358));
#97=EDGE_LOOP('',(#359,#360,#361,#362));
#98=EDGE_LOOP('',(#363));
#99=EDGE_LOOP('',(#364));
#100=EDGE_LOOP('',(#365,#366,#367,#368));
#101=EDGE_LOOP('',(#369));
#102=EDGE_LOOP('',(#370));
#103=EDGE_LOOP('',(#371));
#104=EDGE_LOOP('',(#372));
#105=EDGE_LOOP('',(#373));
#106=EDGE_LOOP('',(#374,#375,#376,#377));
#107=LINE('',#587,#140);
#108=LINE('',#593,#141);
#109=LINE('',#599,#142);
#110=LINE('',#605,#143);
#111=LINE('',#611,#144);
#112=LINE('',#617,#145);
#113=LINE('',#624,#146);
#114=LINE('',#631,#147);
#115=LINE('',#638,#148);
#116=LINE('',#644,#149);
#117=LINE('',#646,#150);
#118=LINE('',#648,#151);
#119=LINE('',#649,#152);
#120=LINE('',#652,#153);
#121=LINE('',#654,#154);
#122=LINE('',#655,#155);
#123=LINE('',#658,#156);
#124=LINE('',#660,#157);
#125=LINE('',#661,#158);
#126=LINE('',#663,#159);
#127=LINE('',#664,#160);
#128=LINE('',#668,#161);
#129=LINE('',#670,#162);
#130=LINE('',#672,#163);
#131=LINE('',#673,#164);
#132=LINE('',#676,#165);
#133=LINE('',#678,#166);
#134=LINE('',#679,#167);
#135=LINE('',#682,#168);
#136=LINE('',#684,#169);
#137=LINE('',#685,#170);
#138=LINE('',#687,#171);
#139=LINE('',#688,#172);
#140=VECTOR('',#471,2.1);
#141=VECTOR('',#478,2.1);
#142=VECTOR('',#485,2.1);
#143=VECTOR('',#492,2.1);
#144=VECTOR('',#499,3.25);
#145=VECTOR('',#506,0.949999999999999);
#146=VECTOR('',#515,0.95);
#147=VECTOR('',#524,0.95);
#148=VECTOR('',#533,0.949999999999999);
#149=VECTOR('',#540,10.);
#150=VECTOR('',#541,10.);
#151=VECTOR('',#542,10.);
#152=VECTOR('',#543,10.);
#153=VECTOR('',#546,10.);
#154=VECTOR('',#547,10.);
#155=VECTOR('',#548,10.);
#156=VECTOR('',#551,10.);
#157=VECTOR('',#552,10.);
#158=VECTOR('',#553,10.);
#159=VECTOR('',#556,10.);
#160=VECTOR('',#557,10.);
#161=VECTOR('',#560,10.);
#162=VECTOR('',#561,10.);
#163=VECTOR('',#562,10.);
#164=VECTOR('',#563,10.);
#165=VECTOR('',#566,10.);
#166=VECTOR('',#567,10.);
#167=VECTOR('',#568,10.);
#168=VECTOR('',#571,10.);
#169=VECTOR('',#572,10.);
#170=VECTOR('',#573,10.);
#171=VECTOR('',#576,10.);
#172=VECTOR('',#577,10.);
#173=CIRCLE('',#425,2.1);
#174=CIRCLE('',#426,2.1);
#175=CIRCLE('',#428,2.1);
#176=CIRCLE('',#429,2.1);
#177=CIRCLE('',#431,2.1);
#178=CIRCLE('',#432,2.1);
#179=CIRCLE('',#434,2.1);
#180=CIRCLE('',#435,2.1);
#181=CIRCLE('',#437,3.25);
#182=CIRCLE('',#438,3.25);
#183=CIRCLE('',#440,0.949999999999999);
#184=CIRCLE('',#441,0.949999999999999);
#185=CIRCLE('',#444,0.95);
#186=CIRCLE('',#445,0.95);
#187=CIRCLE('',#448,0.95);
#188=CIRCLE('',#449,0.95);
#189=CIRCLE('',#452,0.949999999999999);
#190=CIRCLE('',#453,0.949999999999999);
#191=VERTEX_POINT('',#584);
#192=VERTEX_POINT('',#586);
#193=VERTEX_POINT('',#590);
#194=VERTEX_POINT('',#592);
#195=VERTEX_POINT('',#596);
#196=VERTEX_POINT('',#598);
#197=VERTEX_POINT('',#602);
#198=VERTEX_POINT('',#604);
#199=VERTEX_POINT('',#608);
#200=VERTEX_POINT('',#610);
#201=VERTEX_POINT('',#614);
#202=VERTEX_POINT('',#616);
#203=VERTEX_POINT('',#621);
#204=VERTEX_POINT('',#623);
#205=VERTEX_POINT('',#628);
#206=VERTEX_POINT('',#630);
#207=VERTEX_POINT('',#635);
#208=VERTEX_POINT('',#637);
#209=VERTEX_POINT('',#642);
#210=VERTEX_POINT('',#643);
#211=VERTEX_POINT('',#645);
#212=VERTEX_POINT('',#647);
#213=VERTEX_POINT('',#651);
#214=VERTEX_POINT('',#653);
#215=VERTEX_POINT('',#657);
#216=VERTEX_POINT('',#659);
#217=VERTEX_POINT('',#666);
#218=VERTEX_POINT('',#667);
#219=VERTEX_POINT('',#669);
#220=VERTEX_POINT('',#671);
#221=VERTEX_POINT('',#675);
#222=VERTEX_POINT('',#677);
#223=VERTEX_POINT('',#681);
#224=VERTEX_POINT('',#683);
#225=EDGE_CURVE('',#191,#191,#173,.T.);
#226=EDGE_CURVE('',#191,#192,#107,.T.);
#227=EDGE_CURVE('',#192,#192,#174,.T.);
#228=EDGE_CURVE('',#193,#193,#175,.T.);
#229=EDGE_CURVE('',#193,#194,#108,.T.);
#230=EDGE_CURVE('',#194,#194,#176,.T.);
#231=EDGE_CURVE('',#195,#195,#177,.T.);
#232=EDGE_CURVE('',#195,#196,#109,.T.);
#233=EDGE_CURVE('',#196,#196,#178,.T.);
#234=EDGE_CURVE('',#197,#197,#179,.T.);
#235=EDGE_CURVE('',#197,#198,#110,.T.);
#236=EDGE_CURVE('',#198,#198,#180,.T.);
#237=EDGE_CURVE('',#199,#199,#181,.T.);
#238=EDGE_CURVE('',#199,#200,#111,.T.);
#239=EDGE_CURVE('',#200,#200,#182,.T.);
#240=EDGE_CURVE('',#201,#201,#183,.T.);
#241=EDGE_CURVE('',#201,#202,#112,.T.);
#242=EDGE_CURVE('',#202,#202,#184,.T.);
#243=EDGE_CURVE('',#203,#203,#185,.T.);
#244=EDGE_CURVE('',#203,#204,#113,.T.);
#245=EDGE_CURVE('',#204,#204,#186,.T.);
#246=EDGE_CURVE('',#205,#205,#187,.T.);
#247=EDGE_CURVE('',#205,#206,#114,.T.);
#248=EDGE_CURVE('',#206,#206,#188,.T.);
#249=EDGE_CURVE('',#207,#207,#189,.T.);
#250=EDGE_CURVE('',#207,#208,#115,.T.);
#251=EDGE_CURVE('',#208,#208,#190,.T.);
#252=EDGE_CURVE('',#209,#210,#116,.T.);
#253=EDGE_CURVE('',#209,#211,#117,.T.);
#254=EDGE_CURVE('',#212,#211,#118,.T.);
#255=EDGE_CURVE('',#210,#212,#119,.T.);
#256=EDGE_CURVE('',#213,#209,#120,.T.);
#257=EDGE_CURVE('',#213,#214,#121,.T.);
#258=EDGE_CURVE('',#211,#214,#122,.T.);
#259=EDGE_CURVE('',#215,#213,#123,.T.);
#260=EDGE_CURVE('',#215,#216,#124,.T.);
#261=EDGE_CURVE('',#214,#216,#125,.T.);
#262=EDGE_CURVE('',#210,#215,#126,.T.);
#263=EDGE_CURVE('',#216,#212,#127,.T.);
#264=EDGE_CURVE('',#217,#218,#128,.T.);
#265=EDGE_CURVE('',#217,#219,#129,.T.);
#266=EDGE_CURVE('',#220,#219,#130,.T.);
#267=EDGE_CURVE('',#218,#220,#131,.T.);
#268=EDGE_CURVE('',#218,#221,#132,.T.);
#269=EDGE_CURVE('',#222,#220,#133,.T.);
#270=EDGE_CURVE('',#221,#222,#134,.T.);
#271=EDGE_CURVE('',#221,#223,#135,.T.);
#272=EDGE_CURVE('',#224,#222,#136,.T.);
#273=EDGE_CURVE('',#223,#224,#137,.T.);
#274=EDGE_CURVE('',#223,#217,#138,.T.);
#275=EDGE_CURVE('',#219,#224,#139,.T.);
#276=ORIENTED_EDGE('',*,*,#225,.F.);
#277=ORIENTED_EDGE('',*,*,#226,.T.);
#278=ORIENTED_EDGE('',*,*,#227,.F.);
#279=ORIENTED_EDGE('',*,*,#226,.F.);
#280=ORIENTED_EDGE('',*,*,#228,.F.);
#281=ORIENTED_EDGE('',*,*,#229,.T.);
#282=ORIENTED_EDGE('',*,*,#230,.F.);
#283=ORIENTED_EDGE('',*,*,#229,.F.);
#284=ORIENTED_EDGE('',*,*,#231,.F.);
#285=ORIENTED_EDGE('',*,*,#232,.T.);
#286=ORIENTED_EDGE('',*,*,#233,.F.);
#287=ORIENTED_EDGE('',*,*,#232,.F.);
#288=ORIENTED_EDGE('',*,*,#234,.F.);
#289=ORIENTED_EDGE('',*,*,#235,.T.);
#290=ORIENTED_EDGE('',*,*,#236,.F.);
#291=ORIENTED_EDGE('',*,*,#235,.F.);
#292=ORIENTED_EDGE('',*,*,#237,.F.);
#293=ORIENTED_EDGE('',*,*,#238,.T.);
#294=ORIENTED_EDGE('',*,*,#239,.F.);
#295=ORIENTED_EDGE('',*,*,#238,.F.);
#296=ORIENTED_EDGE('',*,*,#240,.F.);
#297=ORIENTED_EDGE('',*,*,#241,.T.);
#298=ORIENTED_EDGE('',*,*,#242,.F.);
#299=ORIENTED_EDGE('',*,*,#241,.F.);
#300=ORIENTED_EDGE('',*,*,#240,.T.);
#301=ORIENTED_EDGE('',*,*,#243,.F.);
#302=ORIENTED_EDGE('',*,*,#244,.T.);
#303=ORIENTED_EDGE('',*,*,#245,.F.);
#304=ORIENTED_EDGE('',*,*,#244,.F.);
#305=ORIENTED_EDGE('',*,*,#243,.T.);
#306=ORIENTED_EDGE('',*,*,#246,.F.);
#307=ORIENTED_EDGE('',*,*,#247,.T.);
#308=ORIENTED_EDGE('',*,*,#248,.F.);
#309=ORIENTED_EDGE('',*,*,#247,.F.);
#310=ORIENTED_EDGE('',*,*,#246,.T.);
#311=ORIENTED_EDGE('',*,*,#249,.F.);
#312=ORIENTED_EDGE('',*,*,#250,.T.);
#313=ORIENTED_EDGE('',*,*,#251,.F.);
#314=ORIENTED_EDGE('',*,*,#250,.F.);
#315=ORIENTED_EDGE('',*,*,#249,.T.);
#316=ORIENTED_EDGE('',*,*,#252,.F.);
#317=ORIENTED_EDGE('',*,*,#253,.T.);
#318=ORIENTED_EDGE('',*,*,#254,.F.);
#319=ORIENTED_EDGE('',*,*,#255,.F.);
#320=ORIENTED_EDGE('',*,*,#256,.F.);
#321=ORIENTED_EDGE('',*,*,#257,.T.);
#322=ORIENTED_EDGE('',*,*,#258,.F.);
#323=ORIENTED_EDGE('',*,*,#253,.F.);
#324=ORIENTED_EDGE('',*,*,#259,.F.);
#325=ORIENTED_EDGE('',*,*,#260,.T.);
#326=ORIENTED_EDGE('',*,*,#261,.F.);
#327=ORIENTED_EDGE('',*,*,#257,.F.);
#328=ORIENTED_EDGE('',*,*,#262,.F.);
#329=ORIENTED_EDGE('',*,*,#255,.T.);
#330=ORIENTED_EDGE('',*,*,#263,.F.);
#331=ORIENTED_EDGE('',*,*,#260,.F.);
#332=ORIENTED_EDGE('',*,*,#264,.F.);
#333=ORIENTED_EDGE('',*,*,#265,.T.);
#334=ORIENTED_EDGE('',*,*,#266,.F.);
#335=ORIENTED_EDGE('',*,*,#267,.F.);
#336=ORIENTED_EDGE('',*,*,#268,.F.);
#337=ORIENTED_EDGE('',*,*,#267,.T.);
#338=ORIENTED_EDGE('',*,*,#269,.F.);
#339=ORIENTED_EDGE('',*,*,#270,.F.);
#340=ORIENTED_EDGE('',*,*,#271,.F.);
#341=ORIENTED_EDGE('',*,*,#270,.T.);
#342=ORIENTED_EDGE('',*,*,#272,.F.);
#343=ORIENTED_EDGE('',*,*,#273,.F.);
#344=ORIENTED_EDGE('',*,*,#274,.F.);
#345=ORIENTED_EDGE('',*,*,#273,.T.);
#346=ORIENTED_EDGE('',*,*,#275,.F.);
#347=ORIENTED_EDGE('',*,*,#265,.F.);
#348=ORIENTED_EDGE('',*,*,#275,.T.);
#349=ORIENTED_EDGE('',*,*,#272,.T.);
#350=ORIENTED_EDGE('',*,*,#269,.T.);
#351=ORIENTED_EDGE('',*,*,#266,.T.);
#352=ORIENTED_EDGE('',*,*,#231,.T.);
#353=ORIENTED_EDGE('',*,*,#234,.T.);
#354=ORIENTED_EDGE('',*,*,#237,.T.);
#355=ORIENTED_EDGE('',*,*,#242,.T.);
#356=ORIENTED_EDGE('',*,*,#245,.T.);
#357=ORIENTED_EDGE('',*,*,#248,.T.);
#358=ORIENTED_EDGE('',*,*,#251,.T.);
#359=ORIENTED_EDGE('',*,*,#252,.T.);
#360=ORIENTED_EDGE('',*,*,#262,.T.);
#361=ORIENTED_EDGE('',*,*,#259,.T.);
#362=ORIENTED_EDGE('',*,*,#256,.T.);
#363=ORIENTED_EDGE('',*,*,#228,.T.);
#364=ORIENTED_EDGE('',*,*,#225,.T.);
#365=ORIENTED_EDGE('',*,*,#274,.T.);
#366=ORIENTED_EDGE('',*,*,#264,.T.);
#367=ORIENTED_EDGE('',*,*,#268,.T.);
#368=ORIENTED_EDGE('',*,*,#271,.T.);
#369=ORIENTED_EDGE('',*,*,#227,.T.);
#370=ORIENTED_EDGE('',*,*,#230,.T.);
#371=ORIENTED_EDGE('',*,*,#233,.T.);
#372=ORIENTED_EDGE('',*,*,#236,.T.);
#373=ORIENTED_EDGE('',*,*,#239,.T.);
#374=ORIENTED_EDGE('',*,*,#254,.T.);
#375=ORIENTED_EDGE('',*,*,#258,.T.);
#376=ORIENTED_EDGE('',*,*,#261,.T.);
#377=ORIENTED_EDGE('',*,*,#263,.T.);
#378=CYLINDRICAL_SURFACE('',#424,2.1);
#379=CYLINDRICAL_SURFACE('',#427,2.1);
#380=CYLINDRICAL_SURFACE('',#430,2.1);
#381=CYLINDRICAL_SURFACE('',#433,2.1);
#382=CYLINDRICAL_SURFACE('',#436,3.25);
#383=CYLINDRICAL_SURFACE('',#439,0.949999999999999);
#384=CYLINDRICAL_SURFACE('',#443,0.95);
#385=CYLINDRICAL_SURFACE('',#447,0.95);
#386=CYLINDRICAL_SURFACE('',#451,0.949999999999999);
#387=ADVANCED_FACE('',(#45),#378,.F.);
#388=ADVANCED_FACE('',(#46),#379,.F.);
#389=ADVANCED_FACE('',(#47),#380,.F.);
#390=ADVANCED_FACE('',(#48),#381,.F.);
#391=ADVANCED_FACE('',(#49),#382,.F.);
#392=ADVANCED_FACE('',(#50),#383,.T.);
#393=ADVANCED_FACE('',(#51),#31,.T.);
#394=ADVANCED_FACE('',(#52),#384,.T.);
#395=ADVANCED_FACE('',(#53),#32,.T.);
#396=ADVANCED_FACE('',(#54),#385,.T.);
#397=ADVANCED_FACE('',(#55),#33,.T.);
#398=ADVANCED_FACE('',(#56),#386,.T.);
#399=ADVANCED_FACE('',(#57),#34,.T.);
#400=ADVANCED_FACE('',(#58),#35,.F.);
#401=ADVANCED_FACE('',(#59),#36,.F.);
#402=ADVANCED_FACE('',(#60),#37,.F.);
#403=ADVANCED_FACE('',(#61),#38,.F.);
#404=ADVANCED_FACE('',(#62),#39,.T.);
#405=ADVANCED_FACE('',(#63),#40,.T.);
#406=ADVANCED_FACE('',(#64),#41,.T.);
#407=ADVANCED_FACE('',(#65),#42,.T.);
#408=ADVANCED_FACE('',(#66,#15,#16,#17,#18,#19,#20,#21,#22,#23,#24),#43,
 .T.);
#409=ADVANCED_FACE('',(#67,#25,#26,#27,#28,#29,#30),#44,.F.);
#410=CLOSED_SHELL('',(#387,#388,#389,#390,#391,#392,#393,#394,#395,#396,
#397,#398,#399,#400,#401,#402,#403,#404,#405,#406,#407,#408,#409));
#411=DERIVED_UNIT_ELEMENT(#413,1.);
#412=DERIVED_UNIT_ELEMENT(#696,-3.);
#413=(
MASS_UNIT()
NAMED_UNIT(*)
SI_UNIT(.KILO.,.GRAM.)
);
#414=DERIVED_UNIT((#411,#412));
#415=MEASURE_REPRESENTATION_ITEM('density measure',
POSITIVE_RATIO_MEASURE(7850.),#414);
#416=PROPERTY_DEFINITION_REPRESENTATION(#421,#418);
#417=PROPERTY_DEFINITION_REPRESENTATION(#422,#419);
#418=REPRESENTATION('material name',(#420),#693);
#419=REPRESENTATION('density',(#415),#693);
#420=DESCRIPTIVE_REPRESENTATION_ITEM('Steel','Steel');
#421=PROPERTY_DEFINITION('material property','material name',#703);
#422=PROPERTY_DEFINITION('material property','density of part',#703);
#423=AXIS2_PLACEMENT_3D('',#582,#465,#466);
#424=AXIS2_PLACEMENT_3D('',#583,#467,#468);
#425=AXIS2_PLACEMENT_3D('',#585,#469,#470);
#426=AXIS2_PLACEMENT_3D('',#588,#472,#473);
#427=AXIS2_PLACEMENT_3D('',#589,#474,#475);
#428=AXIS2_PLACEMENT_3D('',#591,#476,#477);
#429=AXIS2_PLACEMENT_3D('',#594,#479,#480);
#430=AXIS2_PLACEMENT_3D('',#595,#481,#482);
#431=AXIS2_PLACEMENT_3D('',#597,#483,#484);
#432=AXIS2_PLACEMENT_3D('',#600,#486,#487);
#433=AXIS2_PLACEMENT_3D('',#601,#488,#489);
#434=AXIS2_PLACEMENT_3D('',#603,#490,#491);
#435=AXIS2_PLACEMENT_3D('',#606,#493,#494);
#436=AXIS2_PLACEMENT_3D('',#607,#495,#496);
#437=AXIS2_PLACEMENT_3D('',#609,#497,#498);
#438=AXIS2_PLACEMENT_3D('',#612,#500,#501);
#439=AXIS2_PLACEMENT_3D('',#613,#502,#503);
#440=AXIS2_PLACEMENT_3D('',#615,#504,#505);
#441=AXIS2_PLACEMENT_3D('',#618,#507,#508);
#442=AXIS2_PLACEMENT_3D('',#619,#509,#510);
#443=AXIS2_PLACEMENT_3D('',#620,#511,#512);
#444=AXIS2_PLACEMENT_3D('',#622,#513,#514);
#445=AXIS2_PLACEMENT_3D('',#625,#516,#517);
#446=AXIS2_PLACEMENT_3D('',#626,#518,#519);
#447=AXIS2_PLACEMENT_3D('',#627,#520,#521);
#448=AXIS2_PLACEMENT_3D('',#629,#522,#523);
#449=AXIS2_PLACEMENT_3D('',#632,#525,#526);
#450=AXIS2_PLACEMENT_3D('',#633,#527,#528);
#451=AXIS2_PLACEMENT_3D('',#634,#529,#530);
#452=AXIS2_PLACEMENT_3D('',#636,#531,#532);
#453=AXIS2_PLACEMENT_3D('',#639,#534,#535);
#454=AXIS2_PLACEMENT_3D('',#640,#536,#537);
#455=AXIS2_PLACEMENT_3D('',#641,#538,#539);
#456=AXIS2_PLACEMENT_3D('',#650,#544,#545);
#457=AXIS2_PLACEMENT_3D('',#656,#549,#550);
#458=AXIS2_PLACEMENT_3D('',#662,#554,#555);
#459=AXIS2_PLACEMENT_3D('',#665,#558,#559);
#460=AXIS2_PLACEMENT_3D('',#674,#564,#565);
#461=AXIS2_PLACEMENT_3D('',#680,#569,#570);
#462=AXIS2_PLACEMENT_3D('',#686,#574,#575);
#463=AXIS2_PLACEMENT_3D('',#689,#578,#579);
#464=AXIS2_PLACEMENT_3D('',#690,#580,#581);
#465=DIRECTION('axis',(0.,0.,1.));
#466=DIRECTION('refdir',(1.,0.,0.));
#467=DIRECTION('center_axis',(0.,0.,-1.));
#468=DIRECTION('ref_axis',(-1.,0.,0.));
#469=DIRECTION('center_axis',(0.,0.,-1.));
#470=DIRECTION('ref_axis',(-1.,0.,0.));
#471=DIRECTION('',(0.,0.,-1.));
#472=DIRECTION('center_axis',(0.,0.,1.));
#473=DIRECTION('ref_axis',(-1.,0.,0.));
#474=DIRECTION('center_axis',(0.,0.,-1.));
#475=DIRECTION('ref_axis',(-1.,0.,0.));
#476=DIRECTION('center_axis',(0.,0.,-1.));
#477=DIRECTION('ref_axis',(-1.,0.,0.));
#478=DIRECTION('',(0.,0.,-1.));
#479=DIRECTION('center_axis',(0.,0.,1.));
#480=DIRECTION('ref_axis',(-1.,0.,0.));
#481=DIRECTION('center_axis',(0.,0.,-1.));
#482=DIRECTION('ref_axis',(-1.,0.,0.));
#483=DIRECTION('center_axis',(0.,0.,-1.));
#484=DIRECTION('ref_axis',(-1.,0.,0.));
#485=DIRECTION('',(0.,0.,-1.));
#486=DIRECTION('center_axis',(0.,0.,1.));
#487=DIRECTION('ref_axis',(-1.,0.,0.));
#488=DIRECTION('center_axis',(0.,0.,-1.));
#489=DIRECTION('ref_axis',(-1.,0.,0.));
#490=DIRECTION('center_axis',(0.,0.,-1.));
#491=DIRECTION('ref_axis',(-1.,0.,0.));
#492=DIRECTION('',(0.,0.,-1.));
#493=DIRECTION('center_axis',(0.,0.,1.));
#494=DIRECTION('ref_axis',(-1.,0.,0.));
#495=DIRECTION('center_axis',(0.,0.,-1.));
#496=DIRECTION('ref_axis',(-1.,0.,0.));
#497=DIRECTION('center_axis',(0.,0.,-1.));
#498=DIRECTION('ref_axis',(-1.,0.,0.));
#499=DIRECTION('',(0.,0.,-1.));
#500=DIRECTION('center_axis',(0.,0.,1.));
#501=DIRECTION('ref_axis',(-1.,0.,0.));
#502=DIRECTION('center_axis',(0.,0.,1.));
#503=DIRECTION('ref_axis',(-1.,0.,0.));
#504=DIRECTION('center_axis',(0.,0.,1.));
#505=DIRECTION('ref_axis',(-1.,0.,0.));
#506=DIRECTION('',(0.,0.,-1.));
#507=DIRECTION('center_axis',(0.,0.,-1.));
#508=DIRECTION('ref_axis',(-1.,0.,0.));
#509=DIRECTION('center_axis',(0.,0.,1.));
#510=DIRECTION('ref_axis',(-1.,0.,0.));
#511=DIRECTION('center_axis',(0.,0.,1.));
#512=DIRECTION('ref_axis',(-1.,0.,0.));
#513=DIRECTION('center_axis',(0.,0.,1.));
#514=DIRECTION('ref_axis',(-1.,0.,0.));
#515=DIRECTION('',(0.,0.,-1.));
#516=DIRECTION('center_axis',(0.,0.,-1.));
#517=DIRECTION('ref_axis',(-1.,0.,0.));
#518=DIRECTION('center_axis',(0.,0.,1.));
#519=DIRECTION('ref_axis',(-1.,0.,0.));
#520=DIRECTION('center_axis',(0.,0.,1.));
#521=DIRECTION('ref_axis',(-1.,0.,0.));
#522=DIRECTION('center_axis',(0.,0.,1.));
#523=DIRECTION('ref_axis',(-1.,0.,0.));
#524=DIRECTION('',(0.,0.,-1.));
#525=DIRECTION('center_axis',(0.,0.,-1.));
#526=DIRECTION('ref_axis',(-1.,0.,0.));
#527=DIRECTION('center_axis',(0.,0.,1.));
#528=DIRECTION('ref_axis',(-1.,0.,0.));
#529=DIRECTION('center_axis',(0.,0.,1.));
#530=DIRECTION('ref_axis',(-1.,0.,0.));
#531=DIRECTION('center_axis',(0.,0.,1.));
#532=DIRECTION('ref_axis',(-1.,0.,0.));
#533=DIRECTION('',(0.,0.,-1.));
#534=DIRECTION('center_axis',(0.,0.,-1.));
#535=DIRECTION('ref_axis',(-1.,0.,0.));
#536=DIRECTION('center_axis',(0.,0.,1.));
#537=DIRECTION('ref_axis',(-1.,0.,0.));
#538=DIRECTION('center_axis',(0.,1.,0.));
#539=DIRECTION('ref_axis',(1.,0.,0.));
#540=DIRECTION('',(1.,0.,0.));
#541=DIRECTION('',(0.,0.,-1.));
#542=DIRECTION('',(-1.,0.,0.));
#543=DIRECTION('',(0.,0.,-1.));
#544=DIRECTION('center_axis',(-1.,0.,0.));
#545=DIRECTION('ref_axis',(0.,1.,0.));
#546=DIRECTION('',(0.,1.,0.));
#547=DIRECTION('',(0.,0.,-1.));
#548=DIRECTION('',(0.,-1.,0.));
#549=DIRECTION('center_axis',(0.,-1.,0.));
#550=DIRECTION('ref_axis',(-1.,0.,0.));
#551=DIRECTION('',(-1.,0.,0.));
#552=DIRECTION('',(0.,0.,-1.));
#553=DIRECTION('',(1.,0.,0.));
#554=DIRECTION('center_axis',(1.,0.,0.));
#555=DIRECTION('ref_axis',(0.,-1.,0.));
#556=DIRECTION('',(0.,-1.,0.));
#557=DIRECTION('',(0.,1.,0.));
#558=DIRECTION('center_axis',(1.,0.,0.));
#559=DIRECTION('ref_axis',(0.,1.,0.));
#560=DIRECTION('',(0.,-1.,0.));
#561=DIRECTION('',(0.,0.,1.));
#562=DIRECTION('',(0.,1.,0.));
#563=DIRECTION('',(0.,0.,1.));
#564=DIRECTION('center_axis',(0.,-1.,0.));
#565=DIRECTION('ref_axis',(1.,0.,0.));
#566=DIRECTION('',(-1.,0.,0.));
#567=DIRECTION('',(1.,0.,0.));
#568=DIRECTION('',(0.,0.,1.));
#569=DIRECTION('center_axis',(-1.,0.,0.));
#570=DIRECTION('ref_axis',(0.,-1.,0.));
#571=DIRECTION('',(0.,1.,0.));
#572=DIRECTION('',(0.,-1.,0.));
#573=DIRECTION('',(0.,0.,1.));
#574=DIRECTION('center_axis',(0.,1.,0.));
#575=DIRECTION('ref_axis',(-1.,0.,0.));
#576=DIRECTION('',(1.,0.,0.));
#577=DIRECTION('',(-1.,0.,0.));
#578=DIRECTION('center_axis',(0.,0.,1.));
#579=DIRECTION('ref_axis',(1.,0.,0.));
#580=DIRECTION('center_axis',(0.,0.,1.));
#581=DIRECTION('ref_axis',(-1.,0.,0.));
#582=CARTESIAN_POINT('',(0.,0.,0.));
#583=CARTESIAN_POINT('Origin',(-16.8,-36.7999996647239,30.));
#584=CARTESIAN_POINT('',(-14.7,-36.7999996647239,30.));
#585=CARTESIAN_POINT('Origin',(-16.8,-36.7999996647239,30.));
#586=CARTESIAN_POINT('',(-14.7,-36.7999996647239,28.));
#587=CARTESIAN_POINT('',(-14.7,-36.7999996647239,30.));
#588=CARTESIAN_POINT('Origin',(-16.8,-36.7999996647239,28.));
#589=CARTESIAN_POINT('Origin',(11.7500001750886,-36.7500005476177,30.));
#590=CARTESIAN_POINT('',(13.8500001750886,-36.7500005476177,30.));
#591=CARTESIAN_POINT('Origin',(11.7500001750886,-36.7500005476177,30.));
#592=CARTESIAN_POINT('',(13.8500001750886,-36.7500005476177,28.));
#593=CARTESIAN_POINT('',(13.8500001750886,-36.7500005476177,30.));
#594=CARTESIAN_POINT('Origin',(11.7500001750886,-36.7500005476177,28.));
#595=CARTESIAN_POINT('Origin',(11.8000001117587,41.7500002868474,30.));
#596=CARTESIAN_POINT('',(13.9000001117587,41.7500002868474,30.));
#597=CARTESIAN_POINT('Origin',(11.8000001117587,41.7500002868474,30.));
#598=CARTESIAN_POINT('',(13.9000001117587,41.7500002868474,28.));
#599=CARTESIAN_POINT('',(13.9000001117587,41.7500002868474,30.));
#600=CARTESIAN_POINT('Origin',(11.8000001117587,41.7500002868474,28.));
#601=CARTESIAN_POINT('Origin',(-16.7999998480082,41.7999985069036,30.));
#602=CARTESIAN_POINT('',(-14.6999998480082,41.7999985069036,30.));
#603=CARTESIAN_POINT('Origin',(-16.7999998480082,41.7999985069036,30.));
#604=CARTESIAN_POINT('',(-14.6999998480082,41.7999985069036,28.));
#605=CARTESIAN_POINT('',(-14.6999998480082,41.7999985069036,30.));
#606=CARTESIAN_POINT('Origin',(-16.7999998480082,41.7999985069036,28.));
#607=CARTESIAN_POINT('Origin',(-2.5000000372529,30.0000004470348,30.));
#608=CARTESIAN_POINT('',(0.749999962747097,30.0000004470348,30.));
#609=CARTESIAN_POINT('Origin',(-2.5000000372529,30.0000004470348,30.));
#610=CARTESIAN_POINT('',(0.749999962747097,30.0000004470348,28.));
#611=CARTESIAN_POINT('',(0.749999962747097,30.0000004470348,30.));
#612=CARTESIAN_POINT('Origin',(-2.5000000372529,30.0000004470348,28.));
#613=CARTESIAN_POINT('Origin',(9.02739392904407,-5.48928512727603,30.));
#614=CARTESIAN_POINT('',(9.97739392904407,-5.48928512727603,31.25));
#615=CARTESIAN_POINT('Origin',(9.02739392904407,-5.48928512727603,31.25));
#616=CARTESIAN_POINT('',(9.97739392904407,-5.48928512727603,30.));
#617=CARTESIAN_POINT('',(9.97739392904407,-5.48928512727603,30.));
#618=CARTESIAN_POINT('Origin',(9.02739392904407,-5.48928512727603,30.));
#619=CARTESIAN_POINT('Origin',(9.02739392904407,-5.48928512727603,31.25));
#620=CARTESIAN_POINT('Origin',(-14.0726060709559,-5.48928512727603,30.));
#621=CARTESIAN_POINT('',(-13.1226060709559,-5.48928512727603,31.25));
#622=CARTESIAN_POINT('Origin',(-14.0726060709559,-5.48928512727603,31.25));
#623=CARTESIAN_POINT('',(-13.1226060709559,-5.48928512727603,30.));
#624=CARTESIAN_POINT('',(-13.1226060709559,-5.48928512727603,30.));
#625=CARTESIAN_POINT('Origin',(-14.0726060709559,-5.48928512727603,30.));
#626=CARTESIAN_POINT('Origin',(-14.0726060709559,-5.48928512727603,31.25));
#627=CARTESIAN_POINT('Origin',(-14.0726060709559,18.060714872724,30.));
#628=CARTESIAN_POINT('',(-13.1226060709559,18.060714872724,31.25));
#629=CARTESIAN_POINT('Origin',(-14.0726060709559,18.060714872724,31.25));
#630=CARTESIAN_POINT('',(-13.1226060709559,18.060714872724,30.));
#631=CARTESIAN_POINT('',(-13.1226060709559,18.060714872724,30.));
#632=CARTESIAN_POINT('Origin',(-14.0726060709559,18.060714872724,30.));
#633=CARTESIAN_POINT('Origin',(-14.0726060709559,18.060714872724,31.25));
#634=CARTESIAN_POINT('Origin',(9.02739392904407,18.060714872724,30.));
#635=CARTESIAN_POINT('',(9.97739392904407,18.060714872724,31.25));
#636=CARTESIAN_POINT('Origin',(9.02739392904407,18.060714872724,31.25));
#637=CARTESIAN_POINT('',(9.97739392904407,18.060714872724,30.));
#638=CARTESIAN_POINT('',(9.97739392904407,18.060714872724,30.));
#639=CARTESIAN_POINT('Origin',(9.02739392904407,18.060714872724,30.));
#640=CARTESIAN_POINT('Origin',(9.02739392904407,18.060714872724,31.25));
#641=CARTESIAN_POINT('Origin',(-7.89999983236194,19.7999995663762,30.));
#642=CARTESIAN_POINT('',(-7.89999983236194,19.7999995663762,30.));
#643=CARTESIAN_POINT('',(2.79999994635582,19.7999995663762,30.));
#644=CARTESIAN_POINT('',(-5.19999991618097,19.7999995663762,30.));
#645=CARTESIAN_POINT('',(-7.89999983236194,19.7999995663762,28.));
#646=CARTESIAN_POINT('',(-7.89999983236194,19.7999995663762,30.));
#647=CARTESIAN_POINT('',(2.79999994635582,19.7999995663762,28.));
#648=CARTESIAN_POINT('',(-5.19999991618097,19.7999995663762,28.));
#649=CARTESIAN_POINT('',(2.79999994635582,19.7999995663762,30.));
#650=CARTESIAN_POINT('Origin',(-7.89999983236194,16.5999996200204,30.));
#651=CARTESIAN_POINT('',(-7.89999983236194,16.5999996200204,30.));
#652=CARTESIAN_POINT('',(-7.89999983236194,9.5499998100102,30.));
#653=CARTESIAN_POINT('',(-7.89999983236194,16.5999996200204,28.));
#654=CARTESIAN_POINT('',(-7.89999983236194,16.5999996200204,30.));
#655=CARTESIAN_POINT('',(-7.89999983236194,9.5499998100102,28.));
#656=CARTESIAN_POINT('Origin',(2.79999994635582,16.5999996200204,30.));
#657=CARTESIAN_POINT('',(2.79999994635582,16.5999996200204,30.));
#658=CARTESIAN_POINT('',(0.14999997317791,16.5999996200204,30.));
#659=CARTESIAN_POINT('',(2.79999994635582,16.5999996200204,28.));
#660=CARTESIAN_POINT('',(2.79999994635582,16.5999996200204,30.));
#661=CARTESIAN_POINT('',(0.14999997317791,16.5999996200204,28.));
#662=CARTESIAN_POINT('Origin',(2.79999994635582,19.7999995663762,30.));
#663=CARTESIAN_POINT('',(2.79999994635582,11.1499997831881,30.));
#664=CARTESIAN_POINT('',(2.79999994635582,11.1499997831881,28.));
#665=CARTESIAN_POINT('Origin',(15.,-40.,28.));
#666=CARTESIAN_POINT('',(15.,45.,28.));
#667=CARTESIAN_POINT('',(15.,-40.,28.));
#668=CARTESIAN_POINT('',(15.,45.,28.));
#669=CARTESIAN_POINT('',(15.,45.,30.));
#670=CARTESIAN_POINT('',(15.,45.,28.));
#671=CARTESIAN_POINT('',(15.,-40.,30.));
#672=CARTESIAN_POINT('',(15.,45.,30.));
#673=CARTESIAN_POINT('',(15.,-40.,28.));
#674=CARTESIAN_POINT('Origin',(-20.,-40.,28.));
#675=CARTESIAN_POINT('',(-20.,-40.,28.));
#676=CARTESIAN_POINT('',(15.,-40.,28.));
#677=CARTESIAN_POINT('',(-20.,-40.,30.));
#678=CARTESIAN_POINT('',(15.,-40.,30.));
#679=CARTESIAN_POINT('',(-20.,-40.,28.));
#680=CARTESIAN_POINT('Origin',(-20.,45.,28.));
#681=CARTESIAN_POINT('',(-20.,45.,28.));
#682=CARTESIAN_POINT('',(-20.,-40.,28.));
#683=CARTESIAN_POINT('',(-20.,45.,30.));
#684=CARTESIAN_POINT('',(-20.,-40.,30.));
#685=CARTESIAN_POINT('',(-20.,45.,28.));
#686=CARTESIAN_POINT('Origin',(15.,45.,28.));
#687=CARTESIAN_POINT('',(-20.,45.,28.));
#688=CARTESIAN_POINT('',(-20.,45.,30.));
#689=CARTESIAN_POINT('Origin',(-2.5,2.5,30.));
#690=CARTESIAN_POINT('Origin',(-2.5,2.5,28.));
#691=UNCERTAINTY_MEASURE_WITH_UNIT(LENGTH_MEASURE(0.01),#695,
'DISTANCE_ACCURACY_VALUE',
'Maximum model space distance between geometric entities at asserted c
onnectivities');
#692=UNCERTAINTY_MEASURE_WITH_UNIT(LENGTH_MEASURE(0.01),#695,
'DISTANCE_ACCURACY_VALUE',
'Maximum model space distance between geometric entities at asserted c
onnectivities');
#693=(
GEOMETRIC_REPRESENTATION_CONTEXT(3)
GLOBAL_UNCERTAINTY_ASSIGNED_CONTEXT((#691))
GLOBAL_UNIT_ASSIGNED_CONTEXT((#695,#697,#698))
REPRESENTATION_CONTEXT('','3D')
);
#694=(
GEOMETRIC_REPRESENTATION_CONTEXT(3)
GLOBAL_UNCERTAINTY_ASSIGNED_CONTEXT((#692))
GLOBAL_UNIT_ASSIGNED_CONTEXT((#695,#697,#698))
REPRESENTATION_CONTEXT('','3D')
);
#695=(
LENGTH_UNIT()
NAMED_UNIT(*)
SI_UNIT(.MILLI.,.METRE.)
);
#696=(
LENGTH_UNIT()
NAMED_UNIT(*)
SI_UNIT($,.METRE.)
);
#697=(
NAMED_UNIT(*)
PLANE_ANGLE_UNIT()
SI_UNIT($,.RADIAN.)
);
#698=(
NAMED_UNIT(*)
SI_UNIT($,.STERADIAN.)
SOLID_ANGLE_UNIT()
);
#699=SHAPE_DEFINITION_REPRESENTATION(#700,#701);
#700=PRODUCT_DEFINITION_SHAPE('',$,#703);
#701=SHAPE_REPRESENTATION('',(#423),#693);
#702=PRODUCT_DEFINITION_CONTEXT('part definition',#707,'design');
#703=PRODUCT_DEFINITION('2026-09-26-17-29-09-090','Lid',#704,#702);
#704=PRODUCT_DEFINITION_FORMATION('',$,#709);
#705=PRODUCT_RELATED_PRODUCT_CATEGORY('Lid','Lid',(#709));
#706=APPLICATION_PROTOCOL_DEFINITION('international standard',
'automotive_design',2009,#707);
#707=APPLICATION_CONTEXT(
'Core Data for Automotive Mechanical Design Process');
#708=PRODUCT_CONTEXT('part definition',#707,'mechanical');
#709=PRODUCT('2026-09-26-17-29-09-090','Lid',$,(#708));
#710=PRESENTATION_STYLE_ASSIGNMENT((#711));
#711=SURFACE_STYLE_USAGE(.BOTH.,#712);
#712=SURFACE_SIDE_STYLE('',(#713));
#713=SURFACE_STYLE_FILL_AREA(#714);
#714=FILL_AREA_STYLE('Steel - Satin',(#715));
#715=FILL_AREA_STYLE_COLOUR('Steel - Satin',#716);
#716=COLOUR_RGB('Steel - Satin',0.627450980392157,0.627450980392157,0.627450980392157);
ENDSEC;
END-ISO-10303-21;
